# Blender 5.1.2
# www.blender.org
mtllib FlagIcon.mtl
o Plane
v -0.830424 -0.300000 2.382492
v -0.514671 -0.300000 2.299958
v -1.820583 -0.300000 -1.551850
v -1.504829 -0.300000 -1.634384
v -1.832876 -0.300000 -1.667512
v -1.557872 -0.300000 -1.741220
v -1.752872 -0.300000 -1.761667
v -1.664365 -0.300000 -1.784802
v -0.774952 -0.300000 2.461149
v -0.515696 -0.300000 2.394945
v -0.664687 -0.300000 2.497394
v -0.571513 -0.300000 2.479366
v -0.389597 -0.300000 0.074362
v -0.082800 -0.300000 -0.016550
v -0.529953 -0.300000 -0.431978
v -0.222924 -0.300000 -0.529526
v -0.730653 -0.300000 0.142249
v -0.791300 -0.300000 -0.398426
v -0.336621 -0.300000 0.323348
v -0.029824 -0.300000 0.221841
v -0.724522 -0.300000 0.346598
v 0.431065 -0.300000 -0.302619
v 0.506997 -0.300000 -0.060697
v 0.229757 -0.300000 0.096465
v 0.165303 -0.300000 -0.143692
v -0.922847 -0.300000 0.127759
v -1.058298 -0.300000 -0.392069
v -0.852949 -0.300000 0.297772
v -0.948461 -0.300000 -0.963501
v -1.212516 -0.300000 -0.960087
v -1.172676 -0.300000 -1.524848
v -1.377542 -0.300000 -1.564681
v -1.283729 -0.300000 -1.719567
v -1.379046 -0.300000 -1.691749
v -0.379855 -0.300000 -1.090643
v -0.496736 -0.300000 -1.594871
v -0.579610 -0.300000 -1.847039
v -0.793066 -0.300000 -1.581552
v -0.938659 -0.300000 -1.732124
v -0.641202 -0.300000 -1.000584
v 0.987310 -0.300000 -0.586922
v 1.063242 -0.300000 -0.345000
v 1.515302 -0.300000 -0.691108
v 1.752528 -0.300000 -0.442786
v 1.803137 -0.300000 -0.629303
v 1.824327 -0.300000 -0.480971
v 1.381097 -0.300000 -1.194378
v 1.633615 -0.300000 -1.212036
v 1.410233 -0.300000 -0.435942
v 1.327238 -0.300000 -0.672566
v 1.731620 -0.300000 -0.905660
v 1.452614 -0.300000 -0.944509
v 0.785119 -0.300000 -0.202848
v 0.709188 -0.300000 -0.444771
v 0.302729 -0.300000 -0.811625
v 0.844129 -0.300000 -1.092645
v 0.574099 -0.300000 -0.958636
v 1.296336 -0.300000 -1.542252
v 1.548853 -0.300000 -1.559910
v 1.236296 -0.300000 -1.770048
v 1.488814 -0.300000 -1.787706
v 0.961995 -0.300000 -1.739483
v 0.755443 -0.300000 -1.414227
v 0.686467 -0.300000 -1.653736
v 1.164249 -0.300000 -2.053998
v 1.416767 -0.300000 -2.071656
v 1.096440 -0.300000 -2.266960
v 1.353046 -0.300000 -2.301157
v 1.162232 -0.300000 -2.495552
v 1.275770 -0.300000 -2.473356
v 0.840744 -0.300000 -2.239766
v 0.875322 -0.300000 -2.493726
v 0.559266 -0.300000 -2.154298
v 0.547294 -0.300000 -2.407048
v 0.263662 -0.300000 -2.037045
v 0.213511 -0.300000 -2.258484
v 0.010970 -0.300000 -1.872062
v -0.062218 -0.300000 -2.111707
v -0.274077 -0.300000 -1.708627
v -0.348287 -0.300000 -1.960534
v 0.149305 -0.300000 -1.374518
v 0.410522 -0.300000 -1.517687
v 1.027116 -0.300000 -1.478853
v 1.115678 -0.300000 -1.175395
v 0.337092 -0.300000 -1.777366
v 0.620831 -0.300000 -1.908849
v 0.080138 -0.300000 -1.623290
v 0.913880 -0.300000 -0.842236
v 0.641644 -0.300000 -0.701703
v 0.366897 -0.300000 -0.557122
v 0.043581 -0.300000 -0.657087
v -0.111596 -0.300000 -1.220317
v -0.301390 -0.300000 -0.810085
v 0.226017 -0.300000 -1.093071
v -0.037686 -0.300000 -0.951578
v -0.869881 -0.300000 -0.680964
v -1.136878 -0.300000 -0.674607
v -0.830424 0.300000 2.382492
v -0.514671 0.300000 2.299958
v -1.820583 0.300000 -1.551850
v -1.504829 0.300000 -1.634384
v -1.832876 0.300000 -1.667512
v -1.557872 0.300000 -1.741220
v -1.752872 0.300000 -1.761667
v -1.664365 0.300000 -1.784802
v -0.774952 0.300000 2.461149
v -0.515696 0.300000 2.394945
v -0.664687 0.300000 2.497394
v -0.571513 0.300000 2.479366
v -0.389597 0.300000 0.074362
v -0.082800 0.300000 -0.016550
v -0.529953 0.300000 -0.431978
v -0.222924 0.300000 -0.529526
v -0.730653 0.300000 0.142249
v -0.791300 0.300000 -0.398426
v -0.336621 0.300000 0.323348
v -0.029824 0.300000 0.221841
v -0.724522 0.300000 0.346598
v 0.431065 0.300000 -0.302619
v 0.506997 0.300000 -0.060697
v 0.229757 0.300000 0.096465
v 0.165303 0.300000 -0.143692
v -0.922847 0.300000 0.127759
v -1.058298 0.300000 -0.392069
v -0.852949 0.300000 0.297772
v -0.948461 0.300000 -0.963501
v -1.212516 0.300000 -0.960087
v -1.172676 0.300000 -1.524848
v -1.377542 0.300000 -1.564681
v -1.283729 0.300000 -1.719567
v -1.379046 0.300000 -1.691749
v -0.379855 0.300000 -1.090643
v -0.496736 0.300000 -1.594871
v -0.579610 0.300000 -1.847039
v -0.793066 0.300000 -1.581552
v -0.938659 0.300000 -1.732124
v -0.641202 0.300000 -1.000584
v 0.987310 0.300000 -0.586922
v 1.063242 0.300000 -0.345000
v 1.515302 0.300000 -0.691108
v 1.752528 0.300000 -0.442786
v 1.803137 0.300000 -0.629303
v 1.824327 0.300000 -0.480971
v 1.381097 0.300000 -1.194378
v 1.633615 0.300000 -1.212036
v 1.410233 0.300000 -0.435942
v 1.327238 0.300000 -0.672566
v 1.731620 0.300000 -0.905660
v 1.452614 0.300000 -0.944509
v 0.785119 0.300000 -0.202848
v 0.709188 0.300000 -0.444771
v 0.302729 0.300000 -0.811625
v 0.844129 0.300000 -1.092645
v 0.574099 0.300000 -0.958636
v 1.296336 0.300000 -1.542252
v 1.548853 0.300000 -1.559910
v 1.236296 0.300000 -1.770048
v 1.488814 0.300000 -1.787706
v 0.961995 0.300000 -1.739483
v 0.755443 0.300000 -1.414227
v 0.686467 0.300000 -1.653736
v 1.164249 0.300000 -2.053998
v 1.416767 0.300000 -2.071656
v 1.096440 0.300000 -2.266960
v 1.353046 0.300000 -2.301157
v 1.162232 0.300000 -2.495552
v 1.275770 0.300000 -2.473356
v 0.840744 0.300000 -2.239766
v 0.875322 0.300000 -2.493726
v 0.559266 0.300000 -2.154298
v 0.547294 0.300000 -2.407048
v 0.263662 0.300000 -2.037045
v 0.213511 0.300000 -2.258484
v 0.010970 0.300000 -1.872062
v -0.062218 0.300000 -2.111707
v -0.274077 0.300000 -1.708627
v -0.348287 0.300000 -1.960534
v 0.149305 0.300000 -1.374518
v 0.410522 0.300000 -1.517687
v 1.027116 0.300000 -1.478853
v 1.115678 0.300000 -1.175395
v 0.337092 0.300000 -1.777366
v 0.620831 0.300000 -1.908849
v 0.080138 0.300000 -1.623290
v 0.913880 0.300000 -0.842236
v 0.641644 0.300000 -0.701703
v 0.366897 0.300000 -0.557122
v 0.043581 0.300000 -0.657087
v -0.111596 0.300000 -1.220317
v -0.301390 0.300000 -0.810085
v 0.226017 0.300000 -1.093071
v -0.037686 0.300000 -0.951578
v -0.869881 0.300000 -0.680964
v -1.136878 0.300000 -0.674607
vn -0.0000 -1.0000 -0.0000
vn -0.0000 1.0000 -0.0000
vn -0.9657 -0.0000 0.2597
vn -0.9651 -0.0000 0.2620
vn 0.1886 -0.0000 0.9821
vn 0.3753 -0.0000 0.9269
vn -0.1107 -0.0000 -0.9938
vn 0.9406 -0.0000 -0.3394
vn 0.6218 -0.0000 -0.7832
vn 0.4742 -0.0000 0.8804
vn 0.4551 -0.0000 0.8904
vn -0.1511 -0.0000 0.9885
vn -0.4352 -0.0000 -0.9003
vn -0.1722 -0.0000 -0.9851
vn -0.1595 -0.0000 -0.9872
vn -0.9635 -0.0000 0.2679
vn 0.2241 -0.0000 0.9746
vn 0.3258 -0.0000 0.9454
vn 0.4806 -0.0000 0.8769
vn 0.4615 -0.0000 0.8871
vn -0.9845 -0.0000 0.1753
vn -0.9088 -0.0000 0.4172
vn 0.0932 -0.0000 -0.9956
vn -0.1320 -0.0000 -0.9913
vn -0.4763 -0.0000 -0.8793
vn 0.2915 -0.0000 0.9566
vn 0.1826 -0.0000 0.9832
vn 0.1990 -0.0000 0.9800
vn -0.5466 -0.0000 0.8374
vn -0.4445 -0.0000 -0.8958
vn -0.3736 -0.0000 -0.9276
vn 0.9931 -0.0000 -0.1176
vn 0.9381 -0.0000 -0.3464
vn 0.9622 -0.0000 -0.2724
vn 0.9633 -0.0000 -0.2683
vn 0.8311 -0.0000 0.5561
vn 0.4643 -0.0000 0.8857
vn -0.3321 -0.0000 -0.9432
vn -0.4849 -0.0000 -0.8746
vn 0.4035 -0.0000 -0.9150
vn 0.8702 -0.0000 0.4926
vn -0.9697 -0.0000 0.2445
vn -0.9240 -0.0000 -0.3824
vn 0.9685 -0.0000 -0.2492
vn 0.9692 -0.0000 -0.2462
vn 0.6811 -0.0000 -0.7322
vn -0.3797 -0.0000 0.9251
vn -0.9556 -0.0000 -0.2948
vn -0.4385 -0.0000 -0.8987
vn 0.9626 -0.0000 -0.2709
vn 0.9693 -0.0000 -0.2458
vn 0.3564 -0.0000 0.9343
vn 0.0663 -0.0000 -0.9978
vn -0.5321 -0.0000 -0.8467
vn -0.9656 -0.0000 0.2601
vn -0.9485 -0.0000 0.3169
vn -0.6976 -0.0000 0.7165
vn 0.4986 -0.0000 -0.8668
vn -0.4686 -0.0000 -0.8834
vn 0.9681 -0.0000 -0.2504
vn 0.1377 -0.0000 0.9905
vn 0.2517 -0.0000 0.9678
vn -0.1717 -0.0000 -0.9852
vn -0.5948 -0.0000 0.8038
vn -0.9630 -0.0000 0.2693
vn 0.8915 -0.0000 0.4529
vn 0.9805 -0.0000 -0.1963
vn 0.9561 -0.0000 0.2931
vn -0.4539 -0.0000 -0.8911
vn -0.9609 -0.0000 0.2767
vn -0.9625 -0.0000 0.2713
vn -0.0632 -0.0000 0.9980
vn 0.5554 -0.0000 0.8316
vn 0.4763 -0.0000 0.8793
vn -0.2972 -0.0000 -0.9548
vn 0.9634 -0.0000 -0.2680
vn 0.4317 -0.0000 0.9020
vn 0.4724 -0.0000 0.8814
vn 0.5122 -0.0000 0.8589
vn -0.5088 -0.0000 -0.8609
vn 0.9067 -0.0000 0.4217
vn 0.9607 -0.0000 -0.2777
vn 0.9648 -0.0000 -0.2630
vn -0.9662 -0.0000 0.2577
vn -0.8168 -0.0000 -0.5770
vn -0.5731 -0.0000 0.8195
vn 0.9665 -0.0000 -0.2568
vn -0.9903 -0.0000 0.1387
vn 0.9647 -0.0000 -0.2635
vn -0.9615 -0.0000 0.2748
vn -0.9693 -0.0000 0.2459
vn -0.8036 -0.0000 -0.5952
vn -0.3028 -0.0000 -0.9531
vn -0.2159 -0.0000 -0.9764
vn -0.9640 -0.0000 0.2659
vn 0.5530 -0.0000 -0.8332
vn 0.4422 -0.0000 0.8969
vn 0.9742 -0.0000 -0.2258
vt 0.380220 0.048448
vt 0.149285 0.759694
vt 0.206328 0.778792
vt 0.437264 0.067546
vt 0.145588 0.780812
vt 0.195247 0.797781
vt 0.159132 0.799121
vt 0.175122 0.804474
vt 0.438254 0.050065
vt 0.391398 0.034671
vt 0.429038 0.033847
vt 0.412126 0.029375
vt 0.432636 0.478393
vt 0.400538 0.569768
vt 0.455791 0.591519
vt 0.487928 0.498921
vt 0.370757 0.461674
vt 0.352892 0.560354
vt 0.445469 0.433262
vt 0.374422 0.424170
vt 0.500630 0.455738
vt 0.531977 0.525383
vt 0.578878 0.557909
vt 0.595846 0.514361
vt 0.546811 0.482017
vt 0.350198 0.431555
vt 0.335232 0.461953
vt 0.303869 0.555870
vt 0.285910 0.606854
vt 0.268456 0.658416
vt 0.316975 0.662322
vt 0.334933 0.611338
vt 0.230602 0.767554
vt 0.268772 0.762772
vt 0.228748 0.790903
vt 0.245932 0.797202
vt 0.309235 0.803795
vt 0.373839 0.829386
vt 0.392210 0.784040
vt 0.337880 0.777912
vt 0.419965 0.692762
vt 0.373020 0.672956
vt 0.628261 0.587504
vt 0.677644 0.617099
vt 0.694612 0.573551
vt 0.645229 0.543956
vt 0.739095 0.637069
vt 0.773450 0.642814
vt 0.820160 0.600091
vt 0.757295 0.594583
vt 0.827151 0.635021
vt 0.832890 0.608005
vt 0.758776 0.688637
vt 0.742522 0.733701
vt 0.788741 0.740083
vt 0.810568 0.684956
vt 0.612650 0.633916
vt 0.597039 0.680328
vt 0.645034 0.708325
vt 0.660971 0.663140
vt 0.563918 0.603916
vt 0.548958 0.649924
vt 0.722615 0.796623
vt 0.768835 0.803006
vt 0.708746 0.837770
vt 0.754965 0.844153
vt 0.673892 0.781622
vt 0.624733 0.766364
vt 0.609074 0.809555
vt 0.658680 0.828744
vt 0.693946 0.726914
vt 0.691971 0.889095
vt 0.738191 0.895478
vt 0.676857 0.927418
vt 0.723623 0.936893
vt 0.686118 0.970273
vt 0.707274 0.967601
vt 0.630171 0.919243
vt 0.633377 0.966376
vt 0.579467 0.900030
vt 0.574128 0.946363
vt 0.526560 0.874798
vt 0.514589 0.914898
vt 0.482138 0.841320
vt 0.465703 0.884482
vt 0.431746 0.807725
vt 0.414971 0.853130
vt 0.543288 0.827953
vt 0.560016 0.781109
vt 0.513755 0.751537
vt 0.497946 0.796428
vt 0.593837 0.855656
vt 0.484617 0.671436
vt 0.531356 0.700730
vt 0.503218 0.618286
vt 0.437878 0.642141
vt 0.467689 0.719940
s 0
f 1/1/1 3/2/1 4/3/1 2/4/1
f 3/2/1 5/5/1 6/6/1 4/3/1
f 5/5/1 7/7/1 8/8/1 6/6/1
f 2/4/1 10/9/1 9/10/1 1/1/1
f 10/9/1 12/11/1 11/12/1 9/10/1
f 13/13/1 15/14/1 16/15/1 14/16/1
f 13/13/1 17/17/1 18/18/1 15/14/1
f 13/13/1 19/19/1 21/20/1 17/17/1
f 14/16/1 20/21/1 19/19/1 13/13/1
f 25/22/1 22/23/1 23/24/1 24/25/1
f 14/16/1 25/22/1 24/25/1 20/21/1
f 21/20/1 28/26/1 26/27/1 17/17/1
f 17/17/1 26/27/1 27/28/1 18/18/1
f 97/29/1 30/30/1 29/31/1 96/32/1
f 30/30/1 32/33/1 31/34/1 29/31/1
f 32/33/1 34/35/1 33/36/1 31/34/1
f 39/37/1 37/38/1 36/39/1 38/40/1
f 38/40/1 36/39/1 35/41/1 40/42/1
f 31/34/1 38/40/1 40/42/1 29/31/1
f 33/36/1 39/37/1 38/40/1 31/34/1
f 54/43/1 41/44/1 42/45/1 53/46/1
f 50/47/1 43/48/1 44/49/1 49/50/1
f 43/48/1 45/51/1 46/52/1 44/49/1
f 52/53/1 47/54/1 48/55/1 51/56/1
f 41/44/1 50/47/1 49/50/1 42/45/1
f 43/48/1 52/53/1 51/56/1 45/51/1
f 22/23/1 54/43/1 53/46/1 23/24/1
f 89/57/1 57/58/1 56/59/1 88/60/1
f 90/61/1 55/62/1 57/58/1 89/57/1
f 47/54/1 58/63/1 59/64/1 48/55/1
f 58/63/1 60/65/1 61/66/1 59/64/1
f 83/67/1 63/68/1 64/69/1 62/70/1
f 84/71/1 56/59/1 63/68/1 83/67/1
f 60/65/1 65/72/1 66/73/1 61/66/1
f 65/72/1 67/74/1 68/75/1 66/73/1
f 67/74/1 69/76/1 70/77/1 68/75/1
f 67/74/1 71/78/1 72/79/1 69/76/1
f 71/78/1 73/80/1 74/81/1 72/79/1
f 73/80/1 75/82/1 76/83/1 74/81/1
f 75/82/1 77/84/1 78/85/1 76/83/1
f 77/84/1 79/86/1 80/87/1 78/85/1
f 79/86/1 36/39/1 37/38/1 80/87/1
f 85/88/1 82/89/1 81/90/1 87/91/1
f 86/92/1 64/69/1 82/89/1 85/88/1
f 95/93/1 94/94/1 55/62/1 91/95/1
f 47/54/1 84/71/1 83/67/1 58/63/1
f 58/63/1 83/67/1 62/70/1 60/65/1
f 73/80/1 86/92/1 85/88/1 75/82/1
f 75/82/1 85/88/1 87/91/1 77/84/1
f 22/23/1 90/61/1 89/57/1 54/43/1
f 54/43/1 89/57/1 88/60/1 41/44/1
f 93/96/1 95/93/1 91/95/1 16/15/1
f 35/41/1 92/97/1 95/93/1 93/96/1
f 92/97/1 81/90/1 94/94/1 95/93/1
f 27/28/1 97/29/1 96/32/1 18/18/1
f 98/1/2 99/4/2 101/3/2 100/2/2
f 100/2/2 101/3/2 103/6/2 102/5/2
f 102/5/2 103/6/2 105/8/2 104/7/2
f 99/4/2 98/1/2 106/10/2 107/9/2
f 107/9/2 106/10/2 108/12/2 109/11/2
f 110/13/2 111/16/2 113/15/2 112/14/2
f 110/13/2 112/14/2 115/18/2 114/17/2
f 110/13/2 114/17/2 118/20/2 116/19/2
f 111/16/2 110/13/2 116/19/2 117/21/2
f 122/22/2 121/25/2 120/24/2 119/23/2
f 111/16/2 117/21/2 121/25/2 122/22/2
f 118/20/2 114/17/2 123/27/2 125/26/2
f 114/17/2 115/18/2 124/28/2 123/27/2
f 194/29/2 193/32/2 126/31/2 127/30/2
f 127/30/2 126/31/2 128/34/2 129/33/2
f 129/33/2 128/34/2 130/36/2 131/35/2
f 136/37/2 135/40/2 133/39/2 134/38/2
f 135/40/2 137/42/2 132/41/2 133/39/2
f 128/34/2 126/31/2 137/42/2 135/40/2
f 130/36/2 128/34/2 135/40/2 136/37/2
f 151/43/2 150/46/2 139/45/2 138/44/2
f 147/47/2 146/50/2 141/49/2 140/48/2
f 140/48/2 141/49/2 143/52/2 142/51/2
f 149/53/2 148/56/2 145/55/2 144/54/2
f 138/44/2 139/45/2 146/50/2 147/47/2
f 140/48/2 142/51/2 148/56/2 149/53/2
f 119/23/2 120/24/2 150/46/2 151/43/2
f 186/57/2 185/60/2 153/59/2 154/58/2
f 187/61/2 186/57/2 154/58/2 152/62/2
f 144/54/2 145/55/2 156/64/2 155/63/2
f 155/63/2 156/64/2 158/66/2 157/65/2
f 180/67/2 159/70/2 161/69/2 160/68/2
f 181/71/2 180/67/2 160/68/2 153/59/2
f 157/65/2 158/66/2 163/73/2 162/72/2
f 162/72/2 163/73/2 165/75/2 164/74/2
f 164/74/2 165/75/2 167/77/2 166/76/2
f 164/74/2 166/76/2 169/79/2 168/78/2
f 168/78/2 169/79/2 171/81/2 170/80/2
f 170/80/2 171/81/2 173/83/2 172/82/2
f 172/82/2 173/83/2 175/85/2 174/84/2
f 174/84/2 175/85/2 177/87/2 176/86/2
f 176/86/2 177/87/2 134/38/2 133/39/2
f 182/88/2 184/91/2 178/90/2 179/89/2
f 183/92/2 182/88/2 179/89/2 161/69/2
f 192/93/2 188/95/2 152/62/2 191/94/2
f 144/54/2 155/63/2 180/67/2 181/71/2
f 155/63/2 157/65/2 159/70/2 180/67/2
f 170/80/2 172/82/2 182/88/2 183/92/2
f 172/82/2 174/84/2 184/91/2 182/88/2
f 119/23/2 151/43/2 186/57/2 187/61/2
f 151/43/2 138/44/2 185/60/2 186/57/2
f 190/96/2 113/15/2 188/95/2 192/93/2
f 132/41/2 190/96/2 192/93/2 189/97/2
f 189/97/2 192/93/2 191/94/2 178/90/2
f 124/28/2 115/18/2 193/32/2 194/29/2
s 1
f 30/30/3 97/29/4 194/29/4 127/30/3
f 19/19/5 20/21/6 117/21/6 116/19/5
s 0
f 60/65/7 62/70/7 159/70/7 157/65/7
s 1
f 68/75/8 70/77/9 167/77/9 165/75/8
f 23/24/10 53/46/11 150/46/11 120/24/10
f 21/20/12 19/19/5 116/19/5 118/20/12
s 0
f 92/97/13 35/41/13 132/41/13 189/97/13
s 1
f 39/37/14 33/36/15 130/36/15 136/37/14
f 87/91/16 81/90/16 178/90/16 184/91/16
f 40/42/17 35/41/18 132/41/18 137/42/17
f 81/90/19 82/89/20 179/89/20 178/90/19
f 3/2/21 1/1/22 98/1/22 100/2/21
f 69/76/23 72/79/24 169/79/24 166/76/23
s 0
f 57/58/25 55/62/25 152/62/25 154/58/25
s 1
f 56/59/26 84/71/27 181/71/27 153/59/26
f 71/78/28 67/74/29 164/74/29 168/78/28
s 0
f 56/59/30 57/58/30 154/58/30 153/59/30
s 1
f 37/38/31 39/37/14 136/37/14 134/38/31
f 2/4/32 4/3/33 101/3/33 99/4/32
f 88/60/34 56/59/35 153/59/35 185/60/34
f 29/31/36 40/42/17 137/42/17 126/31/36
f 24/25/37 23/24/10 120/24/10 121/25/37
f 72/79/24 74/81/38 171/81/38 169/79/24
f 25/22/39 14/16/40 111/16/40 122/22/39
f 73/80/41 71/78/28 168/78/28 170/80/41
f 90/61/42 22/23/43 119/23/43 187/61/42
f 20/21/6 24/25/37 121/25/37 117/21/6
f 64/69/44 86/92/45 183/92/45 161/69/44
f 4/3/33 6/6/46 103/6/46 101/3/33
f 22/23/43 25/22/39 122/22/39 119/23/43
f 77/84/47 87/91/16 184/91/16 174/84/47
f 5/5/48 3/2/21 100/2/21 102/5/48
f 74/81/38 76/83/49 173/83/49 171/81/38
f 48/55/50 59/64/51 156/64/51 145/55/50
f 53/46/11 42/45/52 139/45/52 150/46/11
f 8/8/53 7/7/54 104/7/54 105/8/53
f 27/28/55 26/27/56 123/27/56 124/28/55
f 6/6/46 8/8/53 105/8/53 103/6/46
f 26/27/56 28/26/57 125/26/57 123/27/56
f 41/44/58 88/60/34 185/60/34 138/44/58
f 7/7/54 5/5/48 102/5/48 104/7/54
f 76/83/49 78/85/59 175/85/59 173/83/49
f 59/64/51 61/66/60 158/66/60 156/64/51
f 49/50/61 44/49/62 141/49/62 146/50/61
f 50/47/63 41/44/58 138/44/58 147/47/63
f 28/26/57 21/20/12 118/20/12 125/26/57
f 55/62/42 90/61/42 187/61/42 152/62/42
f 1/1/22 9/10/64 106/10/64 98/1/22
f 93/96/65 16/15/65 113/15/65 190/96/65
f 46/52/66 45/51/67 142/51/67 143/52/66
f 10/9/68 2/4/32 99/4/32 107/9/68
f 78/85/59 80/87/69 177/87/69 175/85/59
f 64/69/70 63/68/71 160/68/71 161/69/70
f 44/49/62 46/52/66 143/52/66 141/49/62
f 11/12/72 12/11/73 109/11/73 108/12/72
f 79/86/74 77/84/47 174/84/47 176/86/74
s 0
f 62/70/75 64/69/75 161/69/75 159/70/75
s 1
f 96/32/76 29/31/36 126/31/36 193/32/76
f 16/15/77 91/95/78 188/95/78 113/15/77
f 9/10/64 11/12/72 108/12/72 106/10/64
f 91/95/78 55/62/79 152/62/79 188/95/78
f 97/29/4 27/28/55 124/28/55 194/29/4
s 0
f 81/90/80 92/97/80 189/97/80 178/90/80
s 1
f 12/11/73 10/9/68 107/9/68 109/11/73
f 36/39/81 79/86/74 176/86/74 133/39/81
f 51/56/82 48/55/50 145/55/50 148/56/82
f 55/62/83 94/94/83 191/94/83 152/62/83
f 52/53/84 43/48/85 140/48/85 149/53/84
f 35/41/65 93/96/65 190/96/65 132/41/65
f 84/71/27 47/54/86 144/54/86 181/71/27
f 61/66/60 66/73/87 163/73/87 158/66/60
f 42/45/52 49/50/61 146/50/61 139/45/52
f 32/33/88 30/30/3 127/30/3 129/33/88
f 94/94/83 81/90/83 178/90/83 191/94/83
f 14/16/40 16/15/89 113/15/89 111/16/40
f 80/87/69 37/38/31 134/38/31 177/87/69
f 65/72/90 60/65/91 157/65/91 162/72/90
f 43/48/85 50/47/63 147/47/63 140/48/85
f 33/36/15 34/35/92 131/35/92 130/36/15
f 16/15/93 15/14/94 112/14/94 113/15/93
f 63/68/71 56/59/95 153/59/95 160/68/71
f 66/73/87 68/75/8 165/75/8 163/73/87
f 45/51/67 51/56/82 148/56/82 142/51/67
f 34/35/92 32/33/88 129/33/88 131/35/92
f 15/14/94 18/18/96 115/18/96 112/14/94
f 82/89/20 64/69/97 161/69/97 179/89/20
f 67/74/29 65/72/90 162/72/90 164/74/29
f 47/54/86 52/53/84 149/53/84 144/54/86
f 35/41/98 36/39/81 133/39/81 132/41/98
f 18/18/96 96/32/76 193/32/76 115/18/96
f 86/92/45 73/80/41 170/80/41 183/92/45
f 70/77/9 69/76/23 166/76/23 167/77/9
