# Blender 5.1.2
# www.blender.org
mtllib IconNo.mtl
o Cylinder
v -0.000000 -0.331983 -2.531983
v 0.493965 -0.331983 -2.483331
v 0.968948 -0.331983 -2.339247
v 1.406694 -0.331983 -2.105267
v 1.790382 -0.331983 -1.790382
v 2.105267 -0.331983 -1.406694
v 2.339247 -0.331983 -0.968948
v 2.483331 -0.331983 -0.493965
v 2.531983 -0.331983 0.000000
v 2.483331 -0.331983 0.493965
v 2.339247 -0.331983 0.968948
v 2.105267 -0.331983 1.406694
v 1.790382 -0.331983 1.790382
v 1.406694 -0.331983 2.105267
v 0.968948 -0.331983 2.339247
v 0.493965 -0.331983 2.483331
v -0.000000 -0.331983 2.531983
v -0.493965 -0.331983 2.483331
v -0.968948 -0.331983 2.339247
v -1.406694 -0.331983 2.105267
v -1.790382 -0.331983 1.790382
v -2.105267 -0.331983 1.406694
v -2.339247 -0.331983 0.968948
v -2.483331 -0.331983 0.493965
v -2.531983 -0.331983 0.000000
v -2.483331 -0.331983 -0.493965
v -2.339247 -0.331983 -0.968948
v -2.105267 -0.331983 -1.406694
v -1.790382 -0.331983 -1.790382
v -1.406694 -0.331983 -2.105267
v -0.968948 -0.331983 -2.339247
v -0.493965 -0.331983 -2.483331
v -0.000000 -0.331983 -1.724750
v 0.336482 -0.331983 -1.691610
v 0.660033 -0.331983 -1.593461
v 0.872113 -0.331983 -1.450343
v 1.119950 -0.331983 -1.116154
v 1.465189 -0.331983 -0.892733
v 1.593461 -0.331983 -0.660033
v 1.691610 -0.331983 -0.336482
v 1.724750 -0.331983 0.000000
v 1.691610 -0.331983 0.336482
v 1.593461 -0.331983 0.660033
v 1.434077 -0.331983 0.958220
v 1.219583 -0.331983 1.219583
v 0.958220 -0.331983 1.434077
v 0.660033 -0.331983 1.593461
v 0.336482 -0.331983 1.691610
v -0.000000 -0.331983 1.724750
v -0.336482 -0.331983 1.691610
v -0.660033 -0.331983 1.593461
v -0.859354 -0.331983 1.452386
v -1.219583 -0.331983 1.219583
v -1.448724 -0.331983 0.884986
v -1.593461 -0.331983 0.660033
v -1.691610 -0.331983 0.336482
v -1.724750 -0.331983 0.000000
v -1.691610 -0.331983 -0.336482
v -1.593461 -0.331983 -0.660033
v -1.434077 -0.331983 -0.958220
v -1.219583 -0.331983 -1.219583
v -0.958220 -0.331983 -1.434077
v -0.660033 -0.331983 -1.593461
v -0.336482 -0.331983 -1.691610
v -0.000000 0.368017 -2.531983
v 0.493965 0.368017 -2.483331
v 0.968948 0.368017 -2.339247
v 1.406694 0.368017 -2.105267
v 1.790382 0.368017 -1.790382
v 2.105267 0.368017 -1.406694
v 2.339247 0.368017 -0.968948
v 2.483331 0.368017 -0.493965
v 2.531983 0.368017 0.000000
v 2.483331 0.368017 0.493965
v 2.339247 0.368017 0.968948
v 2.105267 0.368017 1.406694
v 1.790382 0.368017 1.790382
v 1.406694 0.368017 2.105267
v 0.968948 0.368017 2.339247
v 0.493965 0.368017 2.483331
v -0.000000 0.368017 2.531983
v -0.493965 0.368017 2.483331
v -0.968948 0.368017 2.339247
v -1.406694 0.368017 2.105267
v -1.790382 0.368017 1.790382
v -2.105267 0.368017 1.406694
v -2.339247 0.368017 0.968948
v -2.483331 0.368017 0.493965
v -2.531983 0.368017 0.000000
v -2.483331 0.368017 -0.493965
v -2.339247 0.368017 -0.968948
v -2.105267 0.368017 -1.406694
v -1.790382 0.368017 -1.790382
v -1.406694 0.368017 -2.105267
v -0.968948 0.368017 -2.339247
v -0.493965 0.368017 -2.483331
v -0.000000 0.368017 -1.724750
v 0.336482 0.368017 -1.691610
v 0.660033 0.368017 -1.593461
v 0.872113 0.368017 -1.450343
v 1.119950 0.368017 -1.116154
v 1.465189 0.368017 -0.892733
v 1.593461 0.368017 -0.660033
v 1.691610 0.368017 -0.336482
v 1.724750 0.368017 0.000000
v 1.691610 0.368017 0.336482
v 1.593461 0.368017 0.660033
v 1.434077 0.368017 0.958220
v 1.219583 0.368017 1.219583
v 0.958220 0.368017 1.434077
v 0.660033 0.368017 1.593461
v 0.336482 0.368017 1.691610
v -0.000000 0.368017 1.724750
v -0.336482 0.368017 1.691610
v -0.660033 0.368017 1.593461
v -0.859354 0.368017 1.452386
v -1.219583 0.368017 1.219583
v -1.448724 0.368017 0.884986
v -1.593461 0.368017 0.660033
v -1.691610 0.368017 0.336482
v -1.724750 0.368017 0.000000
v -1.691610 0.368017 -0.336482
v -1.593461 0.368017 -0.660033
v -1.434077 0.368017 -0.958220
v -1.219583 0.368017 -1.219583
v -0.958220 0.368017 -1.434077
v -0.660033 0.368017 -1.593461
v -0.336482 0.368017 -1.691610
vn -0.0000 -1.0000 -0.0000
vn -0.0000 1.0000 -0.0000
vn 0.5556 -0.0000 0.8315
vn 0.3827 -0.0000 0.9239
vn 0.9239 -0.0000 0.3827
vn 0.9808 -0.0000 0.1951
vn 0.1951 -0.0000 0.9808
vn 0.8315 -0.0000 0.5556
vn -0.0000 -0.0000 1.0000
vn -0.8758 -0.0000 0.4827
vn -0.9214 -0.0000 0.3886
vn 0.7071 -0.0000 0.7071
vn -0.9808 -0.0000 0.1951
vn -1.0000 -0.0000 -0.0000
vn -0.9808 -0.0000 -0.1951
vn -0.9239 -0.0000 -0.3827
vn -0.8315 -0.0000 -0.5556
vn -0.1951 -0.0000 0.9808
vn -0.7071 -0.0000 -0.7071
vn -0.3827 -0.0000 0.9239
vn -0.5556 -0.0000 -0.8315
vn -0.5556 -0.0000 0.8315
vn 0.7102 -0.0000 0.7040
vn -0.3827 -0.0000 -0.9239
vn -0.7071 -0.0000 0.7071
vn -0.7093 -0.0000 -0.7049
vn -0.1951 -0.0000 -0.9808
vn -0.8315 -0.0000 0.5556
vn -0.0000 -0.0000 -1.0000
vn -0.9239 -0.0000 0.3827
vn 0.1951 -0.0000 -0.9808
vn 0.4397 -0.0000 -0.8982
vn 0.5777 -0.0000 -0.8162
vn 0.8410 -0.0000 -0.5411
vn 0.9077 -0.0000 -0.4197
vn 0.3827 -0.0000 -0.9239
vn 0.9808 -0.0000 -0.1951
vn 0.5556 -0.0000 -0.8315
vn 1.0000 -0.0000 -0.0000
vn 0.7071 -0.0000 -0.7071
vn 0.8315 -0.0000 -0.5556
vn 0.9239 -0.0000 -0.3827
vn -0.4296 -0.0000 0.9030
vn -0.5594 -0.0000 0.8289
vt 0.406250 0.500000
vt 0.437500 0.500000
vt 0.125000 0.500000
vt 0.156250 0.500000
vt 0.937500 0.500000
vt 0.968750 0.500000
vt 0.656250 0.500000
vt 0.687500 0.500000
vt 0.375000 0.500000
vt 0.093750 0.500000
vt 0.906250 0.500000
vt 0.625000 0.500000
vt 0.343750 0.500000
vt 0.062500 0.500000
vt 0.875000 0.500000
vt 0.593750 0.500000
vt 0.312500 0.500000
vt 0.031250 0.500000
vt 0.843750 0.500000
vt 0.562500 0.500000
vt 0.281250 0.500000
vt 0.000000 0.500000
vt 0.812500 0.500000
vt 0.531250 0.500000
vt 0.250000 0.500000
vt 0.781250 0.500000
vt 0.500000 0.500000
vt 0.218750 0.500000
vt 0.750000 0.500000
vt 0.468750 0.500000
vt 0.187500 0.500000
vt 0.718750 0.500000
vt 1.000000 0.500000
s 0
f 20/1/1 52/1/1 51/2/1 19/2/1
f 29/3/1 61/3/1 60/4/1 28/4/1
f 3/5/1 35/5/1 34/6/1 2/6/1
f 12/7/1 44/7/1 43/8/1 11/8/1
f 21/9/1 53/9/1 52/1/1 20/1/1
f 30/10/1 62/10/1 61/3/1 29/3/1
f 4/11/1 36/11/1 35/5/1 3/5/1
f 13/12/1 45/12/1 44/7/1 12/7/1
f 22/13/1 54/13/1 53/9/1 21/9/1
f 31/14/1 63/14/1 62/10/1 30/10/1
f 5/15/1 37/15/1 36/11/1 4/11/1
f 14/16/1 46/16/1 45/12/1 13/12/1
f 23/17/1 55/17/1 54/13/1 22/13/1
f 32/18/1 64/18/1 63/14/1 31/14/1
f 6/19/1 38/19/1 37/15/1 5/15/1
f 15/20/1 47/20/1 46/16/1 14/16/1
f 24/21/1 56/21/1 55/17/1 23/17/1
f 1/22/1 33/22/1 64/18/1 32/18/1
f 7/23/1 39/23/1 38/19/1 6/19/1
f 16/24/1 48/24/1 47/20/1 15/20/1
f 25/25/1 57/25/1 56/21/1 24/21/1
f 8/26/1 40/26/1 39/23/1 7/23/1
f 17/27/1 49/27/1 48/24/1 16/24/1
f 26/28/1 58/28/1 57/25/1 25/25/1
f 9/29/1 41/29/1 40/26/1 8/26/1
f 18/30/1 50/30/1 49/27/1 17/27/1
f 27/31/1 59/31/1 58/28/1 26/28/1
f 10/32/1 42/32/1 41/29/1 9/29/1
f 19/2/1 51/2/1 50/30/1 18/30/1
f 2/6/1 34/6/1 33/33/1 1/33/1
f 28/4/1 60/4/1 59/31/1 27/31/1
f 11/8/1 43/8/1 42/32/1 10/32/1
f 54/13/1 36/13/1 37/9/1 53/9/1
f 53/9/1 37/9/1 38/1/1 52/1/1
f 84/1/2 83/2/2 115/2/2 116/1/2
f 93/3/2 92/4/2 124/4/2 125/3/2
f 67/5/2 66/6/2 98/6/2 99/5/2
f 76/7/2 75/8/2 107/8/2 108/7/2
f 85/9/2 84/1/2 116/1/2 117/9/2
f 94/10/2 93/3/2 125/3/2 126/10/2
f 68/11/2 67/5/2 99/5/2 100/11/2
f 77/12/2 76/7/2 108/7/2 109/12/2
f 86/13/2 85/9/2 117/9/2 118/13/2
f 95/14/2 94/10/2 126/10/2 127/14/2
f 69/15/2 68/11/2 100/11/2 101/15/2
f 78/16/2 77/12/2 109/12/2 110/16/2
f 87/17/2 86/13/2 118/13/2 119/17/2
f 96/18/2 95/14/2 127/14/2 128/18/2
f 70/19/2 69/15/2 101/15/2 102/19/2
f 79/20/2 78/16/2 110/16/2 111/20/2
f 88/21/2 87/17/2 119/17/2 120/21/2
f 65/22/2 96/18/2 128/18/2 97/22/2
f 71/23/2 70/19/2 102/19/2 103/23/2
f 80/24/2 79/20/2 111/20/2 112/24/2
f 89/25/2 88/21/2 120/21/2 121/25/2
f 72/26/2 71/23/2 103/23/2 104/26/2
f 81/27/2 80/24/2 112/24/2 113/27/2
f 90/28/2 89/25/2 121/25/2 122/28/2
f 73/29/2 72/26/2 104/26/2 105/29/2
f 82/30/2 81/27/2 113/27/2 114/30/2
f 91/31/2 90/28/2 122/28/2 123/31/2
f 74/32/2 73/29/2 105/29/2 106/32/2
f 83/2/2 82/30/2 114/30/2 115/2/2
f 66/6/2 65/33/2 97/33/2 98/6/2
f 92/4/2 91/31/2 123/31/2 124/4/2
f 75/8/2 74/32/2 106/32/2 107/8/2
f 118/13/2 117/9/2 101/9/2 100/13/2
f 117/9/2 116/1/2 102/1/2 101/9/2
s 1
f 62/10/3 63/14/4 127/14/4 126/10/3
f 11/8/5 10/32/6 74/32/6 75/8/5
f 63/14/4 64/18/7 128/18/7 127/14/4
f 12/7/8 11/8/5 75/8/5 76/7/8
f 64/18/7 33/22/9 97/22/9 128/18/7
f 38/19/10 39/23/11 103/23/11 102/19/10
f 13/12/12 12/7/8 76/7/8 77/12/12
f 39/23/11 40/26/13 104/26/13 103/23/11
f 14/16/3 13/12/12 77/12/12 78/16/3
f 40/26/13 41/29/14 105/29/14 104/26/13
f 15/20/4 14/16/3 78/16/3 79/20/4
f 41/29/14 42/32/15 106/32/15 105/29/14
f 16/24/7 15/20/4 79/20/4 80/24/7
f 42/32/15 43/8/16 107/8/16 106/32/15
f 17/27/9 16/24/7 80/24/7 81/27/9
f 43/8/16 44/7/17 108/7/17 107/8/16
f 18/30/18 17/27/9 81/27/9 82/30/18
f 44/7/17 45/12/19 109/12/19 108/7/17
f 19/2/20 18/30/18 82/30/18 83/2/20
f 45/12/19 46/16/21 110/16/21 109/12/19
f 20/1/22 19/2/20 83/2/20 84/1/22
s 0
f 52/1/23 38/1/23 102/1/23 116/1/23
s 1
f 46/16/21 47/20/24 111/20/24 110/16/21
f 21/9/25 20/1/22 84/1/22 85/9/25
s 0
f 36/13/26 54/13/26 118/13/26 100/13/26
s 1
f 47/20/24 48/24/27 112/24/27 111/20/24
f 22/13/28 21/9/25 85/9/25 86/13/28
f 48/24/27 49/27/29 113/27/29 112/24/27
f 23/17/30 22/13/28 86/13/28 87/17/30
f 49/27/29 50/30/31 114/30/31 113/27/29
f 24/21/13 23/17/30 87/17/30 88/21/13
f 50/30/31 51/2/32 115/2/32 114/30/31
f 25/25/14 24/21/13 88/21/13 89/25/14
f 51/2/32 52/1/33 116/1/33 115/2/32
f 26/28/15 25/25/14 89/25/14 90/28/15
f 27/31/16 26/28/15 90/28/15 91/31/16
f 28/4/17 27/31/16 91/31/16 92/4/17
f 2/6/31 1/33/29 65/33/29 66/6/31
f 54/13/34 55/17/35 119/17/35 118/13/34
f 29/3/19 28/4/17 92/4/17 93/3/19
f 3/5/36 2/6/31 66/6/31 67/5/36
f 55/17/35 56/21/37 120/21/37 119/17/35
f 30/10/21 29/3/19 93/3/19 94/10/21
f 4/11/38 3/5/36 67/5/36 68/11/38
f 56/21/37 57/25/39 121/25/39 120/21/37
f 31/14/24 30/10/21 94/10/21 95/14/24
f 5/15/40 4/11/38 68/11/38 69/15/40
f 57/25/39 58/28/6 122/28/6 121/25/39
f 32/18/27 31/14/24 95/14/24 96/18/27
f 6/19/41 5/15/40 69/15/40 70/19/41
f 58/28/6 59/31/5 123/31/5 122/28/6
f 1/22/29 32/18/27 96/18/27 65/22/29
f 7/23/42 6/19/41 70/19/41 71/23/42
f 59/31/5 60/4/8 124/4/8 123/31/5
f 33/33/9 34/6/18 98/6/18 97/33/9
f 8/26/37 7/23/42 71/23/42 72/26/37
f 60/4/8 61/3/12 125/3/12 124/4/8
f 34/6/18 35/5/43 99/5/43 98/6/18
f 9/29/39 8/26/37 72/26/37 73/29/39
f 61/3/12 62/10/3 126/10/3 125/3/12
f 35/5/43 36/11/44 100/11/44 99/5/43
f 10/32/6 9/29/39 73/29/39 74/32/6
