# Blender 5.1.2
# www.blender.org
mtllib Savlier.mtl
o Plane
v -0.619447 -0.129579 -0.936047
v -0.619447 -0.129579 -1.329669
v 0.000000 -0.129579 -0.936047
v 0.000000 -0.129579 -1.329669
v -0.804350 -0.129579 -0.936047
v -0.804350 -0.129579 -1.329669
v -0.857180 -0.129579 -0.936047
v -0.857180 -0.129579 -1.329669
v -0.904349 -0.129579 -1.014206
v -0.904349 -0.129579 -1.251510
v -0.619447 -0.129579 -0.558693
v -0.804350 -0.129579 -0.558693
v -0.588414 -0.129579 -0.473551
v -0.684442 -0.129579 -0.315539
v -0.781843 -0.129579 -0.408531
v -0.613434 -0.129579 -0.513043
v -0.132445 -0.129579 -0.199969
v -0.228473 -0.129579 -0.041957
v -0.026862 -0.129579 0.000000
v -0.211765 -0.129579 0.000000
v -0.216433 -0.129579 -0.025245
v -0.054905 -0.129579 -0.130802
v 0.619447 -0.129579 -0.936047
v 0.619447 -0.129579 -1.329669
v 0.804350 -0.129579 -0.936047
v 0.804350 -0.129579 -1.329669
v 0.857180 -0.129579 -0.936047
v 0.857180 -0.129579 -1.329669
v 0.904349 -0.129579 -1.014206
v 0.904349 -0.129579 -1.251510
v 0.619447 -0.129579 -0.558693
v 0.804350 -0.129579 -0.558693
v 0.588414 -0.129579 -0.473551
v 0.684442 -0.129579 -0.315539
v 0.781843 -0.129579 -0.408531
v 0.613434 -0.129579 -0.513043
v 0.132445 -0.129579 -0.199969
v 0.228473 -0.129579 -0.041957
v 0.026862 -0.129579 0.000000
v 0.211765 -0.129579 0.000000
v 0.216433 -0.129579 -0.025245
v 0.054905 -0.129579 -0.130802
v -0.619447 -0.129579 0.936047
v -0.619447 -0.129579 1.329669
v 0.000000 -0.129579 0.936047
v 0.000000 -0.129579 1.329669
v -0.804350 -0.129579 0.936047
v -0.804350 -0.129579 1.329669
v -0.857180 -0.129579 0.936047
v -0.857180 -0.129579 1.329669
v -0.904349 -0.129579 1.014206
v -0.904349 -0.129579 1.251510
v -0.619447 -0.129579 0.558693
v -0.804350 -0.129579 0.558693
v -0.588414 -0.129579 0.473551
v -0.684442 -0.129579 0.315539
v -0.781843 -0.129579 0.408531
v -0.613434 -0.129579 0.513043
v -0.132445 -0.129579 0.199969
v -0.228473 -0.129579 0.041957
v -0.216433 -0.129579 0.025245
v -0.054905 -0.129579 0.130802
v 0.619447 -0.129579 0.936047
v 0.619447 -0.129579 1.329669
v 0.804350 -0.129579 0.936047
v 0.804350 -0.129579 1.329669
v 0.857180 -0.129579 0.936047
v 0.857180 -0.129579 1.329669
v 0.904349 -0.129579 1.014206
v 0.904349 -0.129579 1.251510
v 0.619447 -0.129579 0.558693
v 0.804350 -0.129579 0.558693
v 0.588414 -0.129579 0.473551
v 0.684442 -0.129579 0.315539
v 0.781843 -0.129579 0.408531
v 0.613434 -0.129579 0.513043
v 0.132445 -0.129579 0.199969
v 0.228473 -0.129579 0.041957
v 0.216433 -0.129579 0.025245
v 0.054905 -0.129579 0.130802
v -0.619447 0.174272 -0.936047
v -0.619447 0.174272 -1.329669
v 0.000000 0.174272 -0.936047
v 0.000000 0.174272 -1.329669
v -0.804350 0.174272 -0.936047
v -0.804350 0.174272 -1.329669
v -0.857180 0.174272 -0.936047
v -0.857180 0.174272 -1.329669
v -0.904349 0.174272 -1.014206
v -0.904349 0.174272 -1.251510
v -0.619447 0.174272 -0.558693
v -0.804350 0.174272 -0.558693
v -0.588414 0.174272 -0.473551
v -0.684442 0.174272 -0.315539
v -0.781843 0.174272 -0.408531
v -0.613434 0.174272 -0.513043
v -0.132445 0.174272 -0.199969
v -0.228473 0.174272 -0.041957
v -0.026862 0.174272 0.000000
v -0.211765 0.174272 0.000000
v -0.216433 0.174272 -0.025245
v -0.054905 0.174272 -0.130802
v 0.619447 0.174272 -0.936047
v 0.619447 0.174272 -1.329669
v 0.804350 0.174272 -0.936047
v 0.804350 0.174272 -1.329669
v 0.857180 0.174272 -0.936047
v 0.857180 0.174272 -1.329669
v 0.904349 0.174272 -1.014206
v 0.904349 0.174272 -1.251510
v 0.619447 0.174272 -0.558693
v 0.804350 0.174272 -0.558693
v 0.588414 0.174272 -0.473551
v 0.684442 0.174272 -0.315539
v 0.781843 0.174272 -0.408531
v 0.613434 0.174272 -0.513043
v 0.132445 0.174272 -0.199969
v 0.228473 0.174272 -0.041957
v 0.026862 0.174272 0.000000
v 0.211765 0.174272 0.000000
v 0.216433 0.174272 -0.025245
v 0.054905 0.174272 -0.130802
v -0.619447 0.174272 0.936047
v -0.619447 0.174272 1.329669
v 0.000000 0.174272 0.936047
v 0.000000 0.174272 1.329669
v -0.804350 0.174272 0.936047
v -0.804350 0.174272 1.329669
v -0.857180 0.174272 0.936047
v -0.857180 0.174272 1.329669
v -0.904349 0.174272 1.014206
v -0.904349 0.174272 1.251510
v -0.619447 0.174272 0.558693
v -0.804350 0.174272 0.558693
v -0.588414 0.174272 0.473551
v -0.684442 0.174272 0.315539
v -0.781843 0.174272 0.408531
v -0.613434 0.174272 0.513043
v -0.132445 0.174272 0.199969
v -0.228473 0.174272 0.041957
v -0.216433 0.174272 0.025245
v -0.054905 0.174272 0.130802
v 0.619447 0.174272 0.936047
v 0.619447 0.174272 1.329669
v 0.804350 0.174272 0.936047
v 0.804350 0.174272 1.329669
v 0.857180 0.174272 0.936047
v 0.857180 0.174272 1.329669
v 0.904349 0.174272 1.014206
v 0.904349 0.174272 1.251510
v 0.619447 0.174272 0.558693
v 0.804350 0.174272 0.558693
v 0.588414 0.174272 0.473551
v 0.684442 0.174272 0.315539
v 0.781843 0.174272 0.408531
v 0.613434 0.174272 0.513043
v 0.132445 0.174272 0.199969
v 0.228473 0.174272 0.041957
v 0.216433 0.174272 0.025245
v 0.054905 0.174272 0.130802
vn -0.0000 -1.0000 -0.0000
vn -0.0000 1.0000 -0.0000
vn 0.6062 -0.0000 -0.7953
vn 0.6768 -0.0000 -0.7361
vn 0.8644 -0.0000 0.5028
vn 1.0000 -0.0000 -0.0000
vn -0.0000 -0.0000 -1.0000
vn -0.5927 -0.0000 0.8054
vn -0.6985 -0.0000 0.7156
vn 0.5927 -0.0000 0.8054
vn -0.0000 -0.0000 1.0000
vn -0.8644 -0.0000 0.5028
vn -0.9197 -0.0000 -0.3927
vn -0.6768 -0.0000 -0.7361
vn -1.0000 -0.0000 -0.0000
vn 0.9197 -0.0000 -0.3927
vn -0.8562 -0.0000 -0.5167
vn -0.8562 -0.0000 0.5167
vn -0.9972 -0.0000 0.0743
vn 0.8562 -0.0000 -0.5167
vn 0.9979 -0.0000 -0.0654
vn 0.8562 -0.0000 0.5167
vn -0.8876 -0.0000 0.4606
vn -0.6062 -0.0000 0.7953
vn 0.9972 -0.0000 0.0743
vn 0.9401 -0.0000 -0.3409
vn -0.9979 -0.0000 -0.0654
vn 0.6985 -0.0000 -0.7156
vn 0.6062 -0.0000 0.7953
vn 0.8876 -0.0000 0.4606
vn -0.9401 -0.0000 -0.3409
vn -0.9972 -0.0000 -0.0743
vn -0.6768 -0.0000 0.7361
vn 0.9979 -0.0000 0.0654
vn -0.6985 -0.0000 -0.7156
vn 0.5927 -0.0000 -0.8054
vn 0.9972 -0.0000 -0.0743
vn -0.9979 -0.0000 0.0654
vn -0.6062 -0.0000 -0.7953
vn -0.8876 -0.0000 -0.4606
vn -0.9197 -0.0000 0.3927
vn 0.9401 -0.0000 0.3409
vn 0.6768 -0.0000 0.7361
vn 0.8644 -0.0000 -0.5028
vn 0.8876 -0.0000 -0.4606
vn -0.5927 -0.0000 -0.8054
vn -0.9401 -0.0000 0.3409
vn 0.6985 -0.0000 0.7156
vn 0.9197 -0.0000 0.3927
vn -0.8644 -0.0000 -0.5028
vt 0.168057 0.845401
vt 0.168057 0.990647
vt 0.500000 0.990647
vt 0.500000 0.845401
vt 0.068973 0.845401
vt 0.068973 0.990647
vt 0.040664 0.845401
vt 0.040664 0.990647
vt 0.015387 0.874242
vt 0.015387 0.961807
vt 0.168057 0.706158
vt 0.068973 0.706158
vt 0.171279 0.689313
vt 0.184687 0.674740
vt 0.133229 0.616434
vt 0.081034 0.650748
vt 0.429027 0.573789
vt 0.377568 0.515482
vt 0.470578 0.548266
vt 0.485605 0.500000
vt 0.386522 0.500000
vt 0.384020 0.509315
vt 0.831943 0.845401
vt 0.831943 0.990647
vt 0.931027 0.990647
vt 0.931027 0.845401
vt 0.959336 0.990647
vt 0.959336 0.845401
vt 0.984613 0.961807
vt 0.984613 0.874242
vt 0.931027 0.706158
vt 0.831943 0.706158
vt 0.828720 0.689313
vt 0.918965 0.650748
vt 0.866771 0.616434
vt 0.815313 0.674740
vt 0.622432 0.515482
vt 0.570973 0.573789
vt 0.529422 0.548266
vt 0.615980 0.509315
vt 0.613478 0.500000
vt 0.514395 0.500000
vt 0.168057 0.154599
vt 0.500000 0.154599
vt 0.500000 0.009353
vt 0.168057 0.009353
vt 0.068973 0.009353
vt 0.068973 0.154599
vt 0.040664 0.009353
vt 0.040664 0.154599
vt 0.015387 0.038193
vt 0.015387 0.125758
vt 0.068973 0.293842
vt 0.168057 0.293842
vt 0.171279 0.310687
vt 0.081034 0.349252
vt 0.133229 0.383566
vt 0.184687 0.325260
vt 0.377568 0.484518
vt 0.429027 0.426211
vt 0.470578 0.451734
vt 0.384020 0.490685
vt 0.831943 0.154599
vt 0.831943 0.009353
vt 0.931027 0.154599
vt 0.931027 0.009353
vt 0.959336 0.154599
vt 0.959336 0.009353
vt 0.984613 0.125758
vt 0.984613 0.038193
vt 0.831943 0.293842
vt 0.931027 0.293842
vt 0.828720 0.310687
vt 0.815313 0.325260
vt 0.866771 0.383566
vt 0.918965 0.349252
vt 0.570973 0.426211
vt 0.622432 0.484518
vt 0.529422 0.451734
vt 0.615980 0.490685
s 0
f 1/1/1 2/2/1 4/3/1 3/4/1
f 1/1/1 5/5/1 6/6/1 2/2/1
f 5/5/1 7/7/1 8/8/1 6/6/1
f 7/7/1 9/9/1 10/10/1 8/8/1
f 1/1/1 11/11/1 12/12/1 5/5/1
f 16/13/1 13/14/1 14/15/1 15/16/1
f 11/11/1 16/13/1 15/16/1 12/12/1
f 13/14/1 17/17/1 18/18/1 14/15/1
f 22/19/1 19/20/1 20/21/1 21/22/1
f 17/17/1 22/19/1 21/22/1 18/18/1
f 23/23/1 3/4/1 4/3/1 24/24/1
f 23/23/1 24/24/1 26/25/1 25/26/1
f 25/26/1 26/25/1 28/27/1 27/28/1
f 27/28/1 28/27/1 30/29/1 29/30/1
f 23/23/1 25/26/1 32/31/1 31/32/1
f 36/33/1 35/34/1 34/35/1 33/36/1
f 31/32/1 32/31/1 35/34/1 36/33/1
f 33/36/1 34/35/1 38/37/1 37/38/1
f 42/39/1 41/40/1 40/41/1 39/42/1
f 37/38/1 38/37/1 41/40/1 42/39/1
f 43/43/1 45/44/1 46/45/1 44/46/1
f 43/43/1 44/46/1 48/47/1 47/48/1
f 47/48/1 48/47/1 50/49/1 49/50/1
f 49/50/1 50/49/1 52/51/1 51/52/1
f 43/43/1 47/48/1 54/53/1 53/54/1
f 58/55/1 57/56/1 56/57/1 55/58/1
f 53/54/1 54/53/1 57/56/1 58/55/1
f 55/58/1 56/57/1 60/59/1 59/60/1
f 62/61/1 61/62/1 20/21/1 19/20/1
f 59/60/1 60/59/1 61/62/1 62/61/1
f 63/63/1 64/64/1 46/45/1 45/44/1
f 63/63/1 65/65/1 66/66/1 64/64/1
f 65/65/1 67/67/1 68/68/1 66/66/1
f 67/67/1 69/69/1 70/70/1 68/68/1
f 63/63/1 71/71/1 72/72/1 65/65/1
f 76/73/1 73/74/1 74/75/1 75/76/1
f 71/71/1 76/73/1 75/76/1 72/72/1
f 73/74/1 77/77/1 78/78/1 74/75/1
f 80/79/1 39/42/1 40/41/1 79/80/1
f 77/77/1 80/79/1 79/80/1 78/78/1
f 81/1/2 83/4/2 84/3/2 82/2/2
f 81/1/2 82/2/2 86/6/2 85/5/2
f 85/5/2 86/6/2 88/8/2 87/7/2
f 87/7/2 88/8/2 90/10/2 89/9/2
f 81/1/2 85/5/2 92/12/2 91/11/2
f 96/13/2 95/16/2 94/15/2 93/14/2
f 91/11/2 92/12/2 95/16/2 96/13/2
f 93/14/2 94/15/2 98/18/2 97/17/2
f 102/19/2 101/22/2 100/21/2 99/20/2
f 97/17/2 98/18/2 101/22/2 102/19/2
f 103/23/2 104/24/2 84/3/2 83/4/2
f 103/23/2 105/26/2 106/25/2 104/24/2
f 105/26/2 107/28/2 108/27/2 106/25/2
f 107/28/2 109/30/2 110/29/2 108/27/2
f 103/23/2 111/32/2 112/31/2 105/26/2
f 116/33/2 113/36/2 114/35/2 115/34/2
f 111/32/2 116/33/2 115/34/2 112/31/2
f 113/36/2 117/38/2 118/37/2 114/35/2
f 122/39/2 119/42/2 120/41/2 121/40/2
f 117/38/2 122/39/2 121/40/2 118/37/2
f 123/43/2 124/46/2 126/45/2 125/44/2
f 123/43/2 127/48/2 128/47/2 124/46/2
f 127/48/2 129/50/2 130/49/2 128/47/2
f 129/50/2 131/52/2 132/51/2 130/49/2
f 123/43/2 133/54/2 134/53/2 127/48/2
f 138/55/2 135/58/2 136/57/2 137/56/2
f 133/54/2 138/55/2 137/56/2 134/53/2
f 135/58/2 139/60/2 140/59/2 136/57/2
f 142/61/2 99/20/2 100/21/2 141/62/2
f 139/60/2 142/61/2 141/62/2 140/59/2
f 143/63/2 125/44/2 126/45/2 144/64/2
f 143/63/2 144/64/2 146/66/2 145/65/2
f 145/65/2 146/66/2 148/68/2 147/67/2
f 147/67/2 148/68/2 150/70/2 149/69/2
f 143/63/2 145/65/2 152/72/2 151/71/2
f 156/73/2 155/76/2 154/75/2 153/74/2
f 151/71/2 152/72/2 155/76/2 156/73/2
f 153/74/2 154/75/2 158/78/2 157/77/2
f 160/79/2 159/80/2 120/41/2 119/42/2
f 157/77/2 158/78/2 159/80/2 160/79/2
s 1
f 74/75/3 78/78/4 158/78/4 154/75/3
f 62/61/5 19/20/6 99/20/6 142/61/5
s 0
f 6/6/7 8/8/7 88/8/7 86/6/7
s 1
f 77/77/8 73/74/9 153/74/9 157/77/8
f 59/60/10 62/61/5 142/61/5 139/60/10
s 0
f 26/25/7 24/24/7 104/24/7 106/25/7
f 7/7/11 5/5/11 85/5/11 87/7/11
s 1
f 80/79/12 77/77/8 157/77/8 160/79/12
f 61/62/13 60/59/14 140/59/14 141/62/13
s 0
f 44/46/11 46/45/11 126/45/11 124/46/11
f 10/10/15 9/9/15 89/9/15 90/10/15
s 1
f 78/78/4 79/80/16 159/80/16 158/78/4
s 0
f 45/44/7 43/43/7 123/43/7 125/44/7
f 8/8/17 10/10/17 90/10/17 88/8/17
s 1
f 79/80/16 40/41/6 120/41/6 159/80/16
s 0
f 28/27/7 26/25/7 106/25/7 108/27/7
f 9/9/18 7/7/18 87/7/18 89/9/18
f 46/45/11 64/64/11 144/64/11 126/45/11
f 25/26/11 27/28/11 107/28/11 105/26/11
s 1
f 20/21/15 61/62/13 141/62/13 100/21/15
s 0
f 63/63/7 45/44/7 125/44/7 143/63/7
f 48/47/11 44/46/11 124/46/11 128/47/11
f 29/30/6 30/29/6 110/29/6 109/30/6
s 1
f 5/5/15 12/12/19 92/12/19 85/5/15
f 39/42/15 80/79/12 160/79/12 119/42/15
s 0
f 30/29/20 28/27/20 108/27/20 110/29/20
s 1
f 11/11/21 1/1/6 81/1/6 91/11/21
s 0
f 64/64/11 66/66/11 146/66/11 144/64/11
f 27/28/22 29/30/22 109/30/22 107/28/22
f 50/49/11 48/47/11 128/47/11 130/49/11
s 1
f 15/16/23 14/15/24 94/15/24 95/16/23
s 0
f 47/48/7 49/50/7 129/50/7 127/48/7
s 1
f 32/31/25 25/26/6 105/26/6 112/31/25
f 16/13/26 11/11/21 91/11/21 96/13/26
s 0
f 66/66/11 68/68/11 148/68/11 146/66/11
f 51/52/15 52/51/15 132/51/15 131/52/15
s 1
f 23/23/15 31/32/27 111/32/27 103/23/15
f 12/12/19 15/16/23 95/16/23 92/12/19
s 0
f 67/67/7 65/65/7 145/65/7 147/67/7
f 52/51/18 50/49/18 130/49/18 132/51/18
s 1
f 13/14/28 16/13/26 96/13/26 93/14/28
s 0
f 70/70/6 69/69/6 149/69/6 150/70/6
f 49/50/17 51/52/17 131/52/17 129/50/17
s 1
f 34/35/29 35/34/30 115/34/30 114/35/29
s 0
f 68/68/22 70/70/22 150/70/22 148/68/22
s 1
f 31/32/27 36/33/31 116/33/31 111/32/27
s 0
f 69/69/20 67/67/20 147/67/20 149/69/20
s 1
f 54/53/32 47/48/15 127/48/15 134/53/32
f 35/34/30 32/31/25 112/31/25 115/34/30
f 14/15/24 18/18/33 98/18/33 94/15/24
f 43/43/6 53/54/34 133/54/34 123/43/6
f 36/33/31 33/36/35 113/36/35 116/33/31
f 17/17/36 13/14/28 93/14/28 97/17/36
f 65/65/6 72/72/37 152/72/37 145/65/6
f 71/71/38 63/63/15 143/63/15 151/71/38
f 56/57/39 57/56/40 137/56/40 136/57/39
f 21/22/41 20/21/15 100/21/15 101/22/41
f 53/54/34 58/55/42 138/55/42 133/54/34
f 38/37/43 34/35/29 114/35/29 118/37/43
f 22/19/44 17/17/36 97/17/36 102/19/44
s 0
f 4/3/7 2/2/7 82/2/7 84/3/7
s 1
f 75/76/45 74/75/3 154/75/3 155/76/45
f 57/56/40 54/53/32 134/53/32 137/56/40
f 33/36/35 37/38/46 117/38/46 113/36/35
f 18/18/33 21/22/41 101/22/41 98/18/33
s 0
f 1/1/11 3/4/11 83/4/11 81/1/11
s 1
f 76/73/47 71/71/38 151/71/38 156/73/47
f 58/55/42 55/58/48 135/58/48 138/55/42
f 19/20/6 22/19/44 102/19/44 99/20/6
f 72/72/37 75/76/45 155/76/45 152/72/37
f 40/41/6 41/40/49 121/40/49 120/41/6
f 73/74/9 76/73/47 156/73/47 153/74/9
f 37/38/46 42/39/50 122/39/50 117/38/46
s 0
f 2/2/7 6/6/7 86/6/7 82/2/7
s 1
f 60/59/14 56/57/39 136/57/39 140/59/14
f 41/40/49 38/37/43 118/37/43 121/40/49
s 0
f 24/24/7 4/3/7 84/3/7 104/24/7
s 1
f 55/58/48 59/60/10 139/60/10 135/58/48
f 42/39/50 39/42/15 119/42/15 122/39/50
s 0
f 3/4/11 23/23/11 103/23/11 83/4/11
