# Blender 5.1.2
# www.blender.org
mtllib SavlierArrow.mtl
o Plane.001
v -1.123286 -0.352492 -1.664002
v -0.669188 -0.352492 -1.889074
v -1.335610 -0.352492 -2.013690
v -0.817528 -0.352492 -2.261728
v -0.315985 -0.352492 -2.029449
v -0.464325 -0.352492 -2.402103
v -0.599147 -0.352492 -1.647810
v -0.495413 -0.352492 -1.679446
v -0.903683 -0.352492 -2.495913
v -0.808353 -0.352492 -2.533800
v -0.192368 -0.352492 -2.241414
v -0.223870 -0.352492 -2.320552
v -1.840540 -0.352492 0.776896
v -2.147672 -0.352492 1.034860
v 0.357344 -0.352492 1.909146
v 0.443609 -0.352492 2.315308
v 1.424963 -0.352492 1.319177
v 1.803411 -0.352492 1.464223
v -1.734730 -0.352492 -1.695281
v -2.015868 -0.352492 -1.307580
v -2.220811 -0.352492 -0.922270
v -2.358396 -0.352492 -0.425029
v -2.385882 -0.352492 0.177079
v -2.294971 -0.352492 0.654868
v -1.966602 -0.352492 0.417560
v -2.009143 -0.352492 0.011673
v -1.973717 -0.352492 -0.367328
v -1.871287 -0.352492 -0.773692
v -1.684710 -0.352492 -1.080570
v -1.414827 -0.352492 -1.412094
v -1.788131 -0.352492 1.571776
v -1.296365 -0.352492 1.992769
v -0.634790 -0.352492 2.289689
v -0.000384 -0.352492 2.359290
v -0.003743 -0.352492 1.954995
v -0.505734 -0.352492 1.897524
v -1.045763 -0.352492 1.674319
v -1.509717 -0.352492 1.277229
v 0.942159 -0.352492 2.141674
v 1.438822 -0.352492 1.856722
v 1.160913 -0.352492 1.566776
v 0.770449 -0.352492 1.780414
v 1.583451 -0.352492 1.211631
v 1.786430 -0.352492 1.309508
v 1.937799 -0.306326 0.192371
v 2.347073 -0.306326 0.219556
v 1.948677 -0.306326 0.028596
v 2.357951 -0.306326 0.055780
v 1.999330 -0.306326 -0.073604
v 2.326166 -0.306326 -0.046420
v 2.116821 -0.306326 -0.131441
v 2.208674 -0.306326 -0.123801
v 1.952762 -0.306326 0.291684
v 2.306952 -0.306326 0.315209
v 2.083187 -0.306326 0.391227
v 2.185961 -0.306326 0.398054
v 1.748615 -0.352492 0.847712
v 2.137587 -0.352492 0.977886
v 1.800706 -0.352492 0.692060
v 2.189677 -0.352492 0.822235
v 1.875640 -0.352492 0.606064
v 2.184873 -0.352492 0.715314
v 2.003964 -0.352492 0.579942
v 2.090870 -0.352492 0.610645
v 1.737881 -0.352492 0.947570
v 2.074502 -0.352492 1.060224
v 1.838770 -0.352492 1.076958
v 1.936445 -0.352492 1.109646
v 1.902551 -0.267324 -0.460012
v 2.290001 -0.267324 -0.594649
v 1.848675 -0.267324 -0.615054
v 2.236125 -0.267324 -0.749691
v 1.855444 -0.267324 -0.728917
v 2.166987 -0.267324 -0.831393
v 1.941062 -0.267324 -0.828007
v 2.028617 -0.267324 -0.856807
v 1.955073 -0.267324 -0.374406
v 2.290376 -0.267324 -0.490923
v 2.113998 -0.267324 -0.333632
v 2.211291 -0.267324 -0.367441
v 1.652798 -0.227011 -1.087615
v 1.959445 -0.227011 -1.360034
v 1.543787 -0.227011 -1.210323
v 1.850434 -0.227011 -1.482742
v 1.506551 -0.227011 -1.318138
v 1.755332 -0.227011 -1.531841
v 1.547829 -0.227011 -1.442418
v 1.617746 -0.227011 -1.502476
v 1.734036 -0.227011 -1.028561
v 1.999411 -0.227011 -1.264316
v 1.896485 -0.227011 -1.051582
v 1.973488 -0.227011 -1.119990
v 1.204803 -0.174264 -1.579543
v 1.420001 -0.174264 -1.928733
v 1.065070 -0.174264 -1.665657
v 1.280269 -0.174264 -2.014847
v 0.998362 -0.174264 -1.758180
v 1.175056 -0.174264 -2.034477
v 1.002099 -0.174264 -1.889083
v 1.051756 -0.174264 -1.966732
v 1.299605 -0.174264 -1.546387
v 1.485841 -0.174264 -1.848581
v 1.448542 -0.174264 -1.615218
v 1.502581 -0.174264 -1.702903
v 0.577259 -0.122771 -1.897164
v 0.702116 -0.122771 -2.287875
v 0.420911 -0.122771 -1.947127
v 0.545769 -0.122771 -2.337838
v 0.333901 -0.122771 -2.020881
v 0.438924 -0.122771 -2.331575
v 0.306031 -0.122771 -2.148837
v 0.335547 -0.122771 -2.236154
v 0.677254 -0.122771 -1.887793
v 0.785307 -0.122771 -2.225919
v 0.805254 -0.122771 -1.990437
v 0.836607 -0.122771 -2.088549
v -1.123286 0.326775 -1.664002
v -0.669188 0.326775 -1.889074
v -1.335610 0.326775 -2.013690
v -0.817528 0.326775 -2.261728
v -0.315985 0.326775 -2.029449
v -0.464325 0.326775 -2.402103
v -0.599147 0.326775 -1.647810
v -0.495413 0.326775 -1.679446
v -0.903683 0.326775 -2.495913
v -0.808353 0.326775 -2.533800
v -0.192368 0.326775 -2.241414
v -0.223870 0.326775 -2.320552
v -1.840540 0.326775 0.776896
v -2.147672 0.326775 1.034860
v 0.357344 0.326775 1.909146
v 0.443609 0.326775 2.315308
v 1.424963 0.326775 1.319177
v 1.803411 0.326775 1.464223
v -1.734730 0.326775 -1.695281
v -2.015868 0.326775 -1.307580
v -2.220811 0.326775 -0.922270
v -2.358396 0.326775 -0.425029
v -2.385882 0.326775 0.177079
v -2.294971 0.326775 0.654868
v -1.966602 0.326775 0.417560
v -2.009143 0.326775 0.011673
v -1.973717 0.326775 -0.367328
v -1.871287 0.326775 -0.773692
v -1.684710 0.326775 -1.080570
v -1.414827 0.326775 -1.412094
v -1.788131 0.326775 1.571776
v -1.296365 0.326775 1.992769
v -0.634790 0.326775 2.289689
v -0.000384 0.326775 2.359290
v -0.003743 0.326775 1.954995
v -0.505734 0.326775 1.897524
v -1.045763 0.326775 1.674319
v -1.509717 0.326775 1.277229
v 0.942159 0.326775 2.141674
v 1.438822 0.326775 1.856722
v 1.160913 0.326775 1.566776
v 0.770449 0.326775 1.780414
v 1.583451 0.326775 1.211631
v 1.786430 0.326775 1.309508
v 1.937799 0.280609 0.192371
v 2.347073 0.280609 0.219556
v 1.948677 0.280609 0.028596
v 2.357951 0.280609 0.055780
v 1.999330 0.280609 -0.073604
v 2.326166 0.280609 -0.046420
v 2.116821 0.280609 -0.131441
v 2.208674 0.280609 -0.123801
v 1.952762 0.280609 0.291684
v 2.306952 0.280609 0.315209
v 2.083187 0.280609 0.391227
v 2.185961 0.280609 0.398054
v 1.748615 0.326775 0.847712
v 2.137587 0.326775 0.977886
v 1.800706 0.326775 0.692060
v 2.189677 0.326775 0.822235
v 1.875640 0.326775 0.606064
v 2.184873 0.326775 0.715314
v 2.003964 0.326775 0.579942
v 2.090870 0.326775 0.610645
v 1.737881 0.326775 0.947570
v 2.074502 0.326775 1.060224
v 1.838770 0.326775 1.076958
v 1.936445 0.326775 1.109646
v 1.902551 0.241607 -0.460012
v 2.290001 0.241607 -0.594649
v 1.848675 0.241607 -0.615054
v 2.236125 0.241607 -0.749691
v 1.855444 0.241607 -0.728917
v 2.166987 0.241607 -0.831393
v 1.941062 0.241607 -0.828007
v 2.028617 0.241607 -0.856807
v 1.955073 0.241607 -0.374406
v 2.290376 0.241607 -0.490923
v 2.113998 0.241607 -0.333632
v 2.211291 0.241607 -0.367441
v 1.652798 0.201294 -1.087615
v 1.959445 0.201294 -1.360034
v 1.543787 0.201294 -1.210323
v 1.850434 0.201294 -1.482742
v 1.506551 0.201294 -1.318138
v 1.755332 0.201294 -1.531841
v 1.547829 0.201294 -1.442418
v 1.617746 0.201294 -1.502476
v 1.734036 0.201294 -1.028561
v 1.999411 0.201294 -1.264316
v 1.896485 0.201294 -1.051582
v 1.973488 0.201294 -1.119990
v 1.204803 0.148547 -1.579543
v 1.420001 0.148547 -1.928733
v 1.065070 0.148547 -1.665657
v 1.280269 0.148547 -2.014847
v 0.998362 0.148547 -1.758180
v 1.175056 0.148547 -2.034477
v 1.002099 0.148547 -1.889083
v 1.051756 0.148547 -1.966732
v 1.299605 0.148547 -1.546387
v 1.485841 0.148547 -1.848581
v 1.448542 0.148547 -1.615218
v 1.502581 0.148547 -1.702903
v 0.577259 0.097054 -1.897164
v 0.702116 0.097054 -2.287875
v 0.420911 0.097054 -1.947127
v 0.545769 0.097054 -2.337838
v 0.333901 0.097054 -2.020881
v 0.438924 0.097054 -2.331575
v 0.306031 0.097054 -2.148837
v 0.335547 0.097054 -2.236154
v 0.677254 0.097054 -1.887793
v 0.785307 0.097054 -2.225919
v 0.805254 0.097054 -1.990437
v 0.836607 0.097054 -2.088549
vn -0.0000 -1.0000 -0.0000
vn 0.9152 -0.3715 -0.1562
vn 0.7308 -0.6487 0.2125
vn -0.4604 -0.6316 0.6238
vn -0.8291 -0.3980 0.3927
vn 0.4757 -0.6403 0.6031
vn 0.0317 -0.6475 0.7614
vn 0.4871 -0.6719 -0.5580
vn 0.7007 -0.6487 -0.2971
vn 0.7498 -0.6403 0.1668
vn 0.5057 -0.6475 0.5700
vn 0.0374 -0.6316 0.7744
vn -0.3137 -0.6837 0.6589
vn -0.5083 -0.6656 0.5465
vn -0.7333 -0.6415 0.2253
vn -0.7249 -0.6517 -0.2232
vn -0.5159 -0.6555 -0.5515
vn -0.1218 -0.6386 -0.7598
vn 0.2679 -0.6682 -0.6941
vn 0.3386 -0.6719 -0.6588
vn 0.6086 -0.6487 -0.4570
vn 0.7679 -0.6403 -0.0185
vn 0.6280 -0.6475 0.4316
vn 0.2226 -0.6316 0.7427
vn -0.1460 -0.6837 0.7151
vn -0.3619 -0.6656 0.6527
vn -0.6575 -0.6415 0.3951
vn -0.7573 -0.6517 -0.0423
vn -0.6335 -0.6555 -0.4111
vn -0.3011 -0.6386 -0.7082
vn 0.0930 -0.6682 -0.7382
vn 0.6272 -0.6719 -0.3940
vn 0.7566 -0.6487 -0.0827
vn 0.6699 -0.6403 0.3757
vn 0.3201 -0.6475 0.6915
vn -0.1872 -0.6316 0.7524
vn -0.4902 -0.6837 0.5407
vn -0.6441 -0.6656 0.3769
vn -0.7671 -0.6415 0.0046
vn -0.6299 -0.6517 -0.4226
vn -0.3353 -0.6555 -0.6767
vn 0.1022 -0.6386 -0.7627
vn 0.4565 -0.6682 -0.5875
vn -0.0000 1.0000 -0.0000
vn -0.8304 -0.0000 -0.5571
vn -0.4439 -0.0000 -0.8961
vn -0.9614 -0.0000 0.2753
vn -0.8870 -0.0000 0.4617
vn 0.1328 -0.0000 -0.9911
vn 0.9931 -0.0000 -0.1173
vn 0.7991 -0.0000 -0.6012
vn 0.7174 -0.0000 0.6967
vn 0.5533 -0.0000 0.8330
vn -1.0000 -0.0000 0.0059
vn -0.7062 -0.0000 -0.7081
vn -0.9656 -0.0000 -0.2602
vn 0.3601 -0.0000 -0.9329
vn 0.6577 -0.0000 -0.7533
vn 0.3266 -0.0000 -0.9452
vn -0.1861 -0.0000 -0.9825
vn -0.0053 -0.0000 1.0000
vn 0.2152 -0.0000 0.9766
vn -0.2415 -0.0000 0.9704
vn -0.6717 -0.0000 0.7408
vn 0.7495 -0.0000 -0.6621
vn 0.8957 -0.0000 -0.4447
vn 0.8468 -0.0000 -0.5320
vn 0.9941 -0.0000 -0.1087
vn 0.8722 -0.0000 0.4891
vn 0.4201 -0.0000 0.9075
vn 0.6222 -0.0000 0.7828
vn 0.9494 -0.0000 0.3142
vn -0.9991 -0.0000 0.0416
vn -0.8607 -0.0000 0.5092
vn -0.3907 -0.0000 -0.9205
vn -0.2126 -0.0000 -0.9771
vn 0.7752 -0.0000 0.6317
vn 0.9733 -0.0000 0.2297
vn -0.5311 -0.0000 -0.8473
vn -0.7232 -0.0000 -0.6907
vn -0.9557 -0.0000 -0.2943
vn -0.6832 -0.0000 -0.7302
vn -0.3514 -0.0000 0.9362
vn 0.2639 -0.0000 0.9646
vn -0.8483 -0.0000 -0.5296
vn -0.1583 -0.0000 -0.9874
vn -0.9289 -0.0000 -0.3704
vn -0.9559 -0.0000 0.2937
vn -0.9876 -0.0000 -0.1571
vn 0.0482 -0.0000 0.9988
vn -0.4299 -0.0000 0.9029
vn -0.8679 -0.0000 -0.4968
vn -0.9770 -0.0000 -0.2134
vn -0.9975 -0.0000 0.0711
vn 0.9207 -0.0000 -0.3904
vn 0.9761 -0.0000 0.2172
vn 0.6637 -0.0000 0.7480
vn 0.8831 -0.0000 0.4692
vn 0.9904 -0.0000 0.1386
vn 0.9757 -0.0000 -0.2191
vn 1.0000 -0.0000 -0.0056
vn 0.9856 -0.0000 0.1692
vn -0.4849 -0.0000 0.8746
vn -0.8572 -0.0000 0.5150
vn 0.9255 -0.0000 -0.3786
vn 0.9224 -0.0000 0.3863
vn -0.3912 -0.0000 -0.9203
vn 0.1251 -0.0000 -0.9922
vn -0.5033 -0.0000 -0.8641
vn 0.8169 -0.0000 0.5768
vn -0.2000 -0.0000 0.9798
vn 0.5558 -0.0000 -0.8313
vn 0.0693 -0.0000 -0.9976
vn 0.4571 -0.0000 -0.8894
vn -0.9984 -0.0000 -0.0557
vn -0.8388 -0.0000 -0.5444
vn -0.9617 -0.0000 0.2740
vn 0.2871 -0.0000 0.9579
vn 0.5895 -0.0000 0.8078
vn 0.7997 -0.0000 -0.6004
vn -0.5776 -0.0000 0.8163
vn 0.0104 -0.0000 0.9999
vn 0.9997 -0.0000 -0.0240
vn 0.8241 -0.0000 0.5664
vn -0.7476 -0.0000 0.6642
vn -0.5354 -0.0000 0.8446
vn -0.9906 -0.0000 0.1371
vn -0.9037 -0.0000 0.4281
vn -0.2625 -0.0000 0.9649
vn 0.8686 -0.0000 -0.4955
vn 0.9857 -0.0000 -0.1682
vn -0.0062 -0.0000 -1.0000
vn 0.2503 -0.0000 -0.9682
vn 0.5226 -0.0000 -0.8526
vn 0.5013 -0.0000 -0.8653
vn -0.9264 -0.0000 -0.3765
vn -0.0680 -0.0000 -0.9977
vn -0.5547 -0.0000 -0.8321
vn 0.4441 -0.0000 0.8960
vn -0.4318 -0.0000 -0.9020
vn 0.4151 -0.0000 0.9098
vn -0.5938 -0.0000 0.8046
vn 0.9602 -0.0000 0.2792
vn -0.6247 -0.0000 -0.7809
vn -0.5867 -0.0000 -0.8098
vn 0.6193 -0.0000 0.7852
vn 0.0416 -0.0000 0.9991
vn 0.2917 -0.0000 0.9565
vn -0.9603 -0.0000 0.2788
vn 0.8899 -0.0000 0.4562
vn -0.8631 -0.0000 0.5051
vn 0.8165 -0.0000 -0.5773
vn -0.0734 -0.0000 -0.9973
vn -0.3693 -0.0000 -0.9293
vn -0.6811 -0.0000 0.7322
vn 0.3575 -0.0000 -0.9339
vn 0.6135 -0.0000 -0.7897
vn -0.9385 -0.0000 0.3453
vn 0.9291 -0.0000 -0.3698
vn 0.8638 -0.0000 0.5038
vn 0.3212 -0.0000 -0.9470
vt 0.282507 0.818462
vt 0.241248 0.886413
vt 0.341921 0.934611
vt 0.370746 0.862197
vt 0.410555 0.961888
vt 0.439380 0.889475
vt 0.404514 0.821463
vt 0.384357 0.815315
vt 0.325180 0.980117
vt 0.343704 0.987479
vt 0.457280 0.946041
vt 0.463401 0.930663
vt 0.118635 0.413976
vt 0.143131 0.344151
vt 0.083450 0.294024
vt 0.054827 0.367863
vt 0.500054 0.115225
vt 0.570220 0.124134
vt 0.586983 0.045209
vt 0.500707 0.036663
vt 0.726368 0.190663
vt 0.777678 0.238776
vt 0.851217 0.210591
vt 0.780371 0.134321
vt 0.225855 0.769511
vt 0.163692 0.824540
vt 0.173412 0.705090
vt 0.109062 0.749202
vt 0.137156 0.645458
vt 0.069238 0.674330
vt 0.117253 0.566494
vt 0.042502 0.577707
vt 0.110369 0.492848
vt 0.037161 0.460706
vt 0.207416 0.246927
vt 0.153315 0.189691
vt 0.297571 0.169765
vt 0.248874 0.107885
vt 0.402508 0.126392
vt 0.377431 0.050188
vt 0.650494 0.149149
vt 0.683860 0.078950
vt 0.808475 0.259674
vt 0.847918 0.240655
vt 0.877331 0.457735
vt 0.879445 0.489559
vt 0.958975 0.484277
vt 0.956861 0.452452
vt 0.889288 0.509419
vt 0.952798 0.504136
vt 0.912119 0.520657
vt 0.929967 0.519173
vt 0.949065 0.433865
vt 0.880239 0.438436
vt 0.925554 0.417767
vt 0.905583 0.419093
vt 0.840569 0.330390
vt 0.850692 0.360636
vt 0.926276 0.335341
vt 0.916154 0.305095
vt 0.865253 0.377347
vt 0.925342 0.356117
vt 0.890188 0.382423
vt 0.907076 0.376456
vt 0.903895 0.289095
vt 0.838484 0.310986
vt 0.877068 0.279492
vt 0.858088 0.285843
vt 0.870482 0.584505
vt 0.860013 0.614632
vt 0.935301 0.640794
vt 0.945771 0.610667
vt 0.861328 0.636758
vt 0.921867 0.656671
vt 0.877965 0.656013
vt 0.894979 0.661609
vt 0.945843 0.590511
vt 0.880688 0.567870
vt 0.930476 0.566516
vt 0.911570 0.559947
vt 0.776714 0.869904
vt 0.789508 0.854329
vt 0.792761 0.826021
vt 0.782260 0.808982
vt 0.753319 0.795607
vt 0.734897 0.802050
vt 0.707744 0.818783
vt 0.694782 0.836762
vt 0.695508 0.862199
vt 0.705157 0.877288
vt 0.729116 0.890452
vt 0.749561 0.886637
vt 0.637216 0.939692
vt 0.653381 0.927652
vt 0.663350 0.900959
vt 0.657257 0.881894
vt 0.632384 0.861948
vt 0.612954 0.863769
vt 0.582572 0.873478
vt 0.565665 0.887810
vt 0.560249 0.912674
vt 0.565985 0.929641
vt 0.586073 0.948183
vt 0.606835 0.949400
vt 0.881538 0.759395
vt 0.889304 0.740795
vt 0.884266 0.712750
vt 0.869303 0.699457
vt 0.837736 0.694984
vt 0.821951 0.706459
vt 0.800768 0.730304
vt 0.793532 0.751254
vt 0.801553 0.775404
vt 0.815139 0.787074
vt 0.841875 0.792781
vt 0.860355 0.783240
s 0
f 1/1/1 3/2/1 4/3/1 2/4/1
f 4/3/1 6/5/1 5/6/1 2/4/1
f 5/6/1 8/7/1 7/8/1 2/4/1
f 4/3/1 9/9/1 10/10/1 6/5/1
f 6/5/1 12/11/1 11/12/1 5/6/1
f 25/13/1 13/14/1 14/15/1 24/16/1
f 35/17/1 15/18/1 16/19/1 34/20/1
f 41/21/1 17/22/1 18/23/1 40/24/1
f 1/1/1 30/25/1 19/26/1 3/2/1
f 30/25/1 29/27/1 20/28/1 19/26/1
f 29/27/1 28/29/1 21/30/1 20/28/1
f 28/29/1 27/31/1 22/32/1 21/30/1
f 27/31/1 26/33/1 23/34/1 22/32/1
f 26/33/1 25/13/1 24/16/1 23/34/1
f 13/14/1 38/35/1 31/36/1 14/15/1
f 38/35/1 37/37/1 32/38/1 31/36/1
f 37/37/1 36/39/1 33/40/1 32/38/1
f 36/39/1 35/17/1 34/20/1 33/40/1
f 15/18/1 42/41/1 39/42/1 16/19/1
f 42/41/1 41/21/1 40/24/1 39/42/1
f 17/22/1 43/43/1 44/44/1 18/23/1
f 45/45/1 47/46/1 48/47/1 46/48/1
f 47/46/1 49/49/1 50/50/1 48/47/1
f 49/49/1 51/51/1 52/52/1 50/50/1
f 46/48/1 54/53/1 53/54/1 45/45/1
f 54/53/1 56/55/1 55/56/1 53/54/1
f 57/57/1 59/58/1 60/59/1 58/60/1
f 59/58/1 61/61/1 62/62/1 60/59/1
f 61/61/1 63/63/1 64/64/1 62/62/1
f 58/60/1 66/65/1 65/66/1 57/57/1
f 66/65/1 68/67/1 67/68/1 65/66/1
f 69/69/1 71/70/1 72/71/1 70/72/1
f 71/70/1 73/73/1 74/74/1 72/71/1
f 73/73/1 75/75/1 76/76/1 74/74/1
s 1
f 70/72/2 78/77/3 77/78/4 69/69/5
f 78/77/3 80/79/6 79/80/7 77/78/4
f 94/81/8 102/82/9 104/83/10 103/84/11 101/85/12 93/86/13 95/87/14 97/88/15 99/89/16 100/90/17 98/91/18 96/92/19
f 106/93/20 114/94/21 116/95/22 115/96/23 113/97/24 105/98/25 107/99/26 109/100/27 111/101/28 112/102/29 110/103/30 108/104/31
f 82/105/32 90/106/33 92/107/34 91/108/35 89/109/36 81/110/37 83/111/38 85/112/39 87/113/40 88/114/41 86/115/42 84/116/43
s 0
f 117/1/44 118/4/44 120/3/44 119/2/44
f 120/3/44 118/4/44 121/6/44 122/5/44
f 121/6/44 118/4/44 123/8/44 124/7/44
f 120/3/44 122/5/44 126/10/44 125/9/44
f 122/5/44 121/6/44 127/12/44 128/11/44
f 141/13/44 140/16/44 130/15/44 129/14/44
f 151/17/44 150/20/44 132/19/44 131/18/44
f 157/21/44 156/24/44 134/23/44 133/22/44
f 117/1/44 119/2/44 135/26/44 146/25/44
f 146/25/44 135/26/44 136/28/44 145/27/44
f 145/27/44 136/28/44 137/30/44 144/29/44
f 144/29/44 137/30/44 138/32/44 143/31/44
f 143/31/44 138/32/44 139/34/44 142/33/44
f 142/33/44 139/34/44 140/16/44 141/13/44
f 129/14/44 130/15/44 147/36/44 154/35/44
f 154/35/44 147/36/44 148/38/44 153/37/44
f 153/37/44 148/38/44 149/40/44 152/39/44
f 152/39/44 149/40/44 150/20/44 151/17/44
f 131/18/44 132/19/44 155/42/44 158/41/44
f 158/41/44 155/42/44 156/24/44 157/21/44
f 133/22/44 134/23/44 160/44/44 159/43/44
f 161/45/44 162/48/44 164/47/44 163/46/44
f 163/46/44 164/47/44 166/50/44 165/49/44
f 165/49/44 166/50/44 168/52/44 167/51/44
f 162/48/44 161/45/44 169/54/44 170/53/44
f 170/53/44 169/54/44 171/56/44 172/55/44
f 173/57/44 174/60/44 176/59/44 175/58/44
f 175/58/44 176/59/44 178/62/44 177/61/44
f 177/61/44 178/62/44 180/64/44 179/63/44
f 174/60/44 173/57/44 181/66/44 182/65/44
f 182/65/44 181/66/44 183/68/44 184/67/44
f 185/69/44 186/72/44 188/71/44 187/70/44
f 187/70/44 188/71/44 190/74/44 189/73/44
f 189/73/44 190/74/44 192/76/44 191/75/44
f 186/72/44 185/69/44 193/78/44 194/77/44
f 194/77/44 193/78/44 195/80/44 196/79/44
f 210/81/44 212/92/44 214/91/44 216/90/44 215/89/44 213/88/44 211/87/44 209/86/44 217/85/44 219/84/44 220/83/44 218/82/44
f 222/93/44 224/104/44 226/103/44 228/102/44 227/101/44 225/100/44 223/99/44 221/98/44 229/97/44 231/96/44 232/95/44 230/94/44
f 198/105/44 200/116/44 202/115/44 204/114/44 203/113/44 201/112/44 199/111/44 197/110/44 205/109/44 207/108/44 208/107/44 206/106/44
s 1
f 88/114/41 87/113/40 203/113/45 204/114/46
f 24/16/47 14/15/48 130/15/48 140/16/47
f 86/115/42 88/114/41 204/114/46 202/115/49
f 48/47/50 50/50/51 166/50/51 164/47/50
f 30/25/52 1/1/53 117/1/53 146/25/52
f 87/113/40 85/112/39 201/112/54 203/113/45
f 49/49/55 47/46/56 163/46/56 165/49/55
f 94/81/8 96/92/19 212/92/57 210/81/58
f 52/52/59 51/51/60 167/51/60 168/52/59
f 34/20/61 16/19/62 132/19/62 150/20/61
f 81/110/37 89/109/36 205/109/63 197/110/64
f 50/50/51 52/52/59 168/52/59 166/50/51
f 38/35/65 13/14/66 129/14/66 154/35/65
f 90/106/33 82/105/32 198/105/67 206/106/68
f 51/51/60 49/49/55 165/49/55 167/51/60
f 91/108/35 92/107/34 208/107/69 207/108/70
f 40/24/71 18/23/72 134/23/72 156/24/71
f 89/109/36 91/108/35 207/108/70 205/109/63
f 45/45/73 53/54/74 169/54/74 161/45/73
f 42/41/75 15/18/76 131/18/76 158/41/75
f 92/107/34 90/106/33 206/106/68 208/107/69
f 54/53/77 46/48/78 162/48/78 170/53/77
f 3/2/79 19/26/80 135/26/80 119/2/79
f 100/90/17 99/89/16 215/89/81 216/90/82
f 55/56/83 56/55/84 172/55/84 171/56/83
f 19/26/80 20/28/85 136/28/85 135/26/80
f 98/91/18 100/90/17 216/90/82 214/91/86
f 53/54/74 55/56/83 171/56/83 169/54/74
f 20/28/85 21/30/87 137/30/87 136/28/85
f 99/89/16 97/88/15 213/88/88 215/89/81
f 56/55/84 54/53/77 170/53/77 172/55/84
f 21/30/87 22/32/89 138/32/89 137/30/87
f 93/86/13 101/85/12 217/85/90 209/86/91
f 59/58/92 57/57/93 173/57/93 175/58/92
f 22/32/89 23/34/94 139/34/94 138/32/89
f 102/82/9 94/81/8 210/81/58 218/82/95
f 23/34/94 24/16/47 140/16/47 139/34/94
f 103/84/11 104/83/10 220/83/96 219/84/97
f 58/60/98 60/59/99 176/59/99 174/60/98
f 13/14/66 25/13/100 141/13/100 129/14/66
f 101/85/12 103/84/11 219/84/97 217/85/90
f 25/13/100 26/33/101 142/33/101 141/13/100
f 104/83/10 102/82/9 218/82/95 220/83/96
f 26/33/101 27/31/102 143/31/102 142/33/101
f 109/100/27 107/99/26 223/99/103 225/100/104
f 60/59/99 62/62/105 178/62/105 176/59/99
f 27/31/102 28/29/106 144/29/106 143/31/102
f 108/104/31 110/103/30 226/103/107 224/104/108
f 61/61/109 59/58/92 175/58/92 177/61/109
f 28/29/106 29/27/110 145/27/110 144/29/106
f 107/99/26 105/98/25 221/98/111 223/99/103
f 64/64/112 63/63/113 179/63/113 180/64/112
f 29/27/110 30/25/52 146/25/52 145/27/110
f 106/93/20 108/104/31 224/104/108 222/93/114
f 62/62/105 64/64/112 180/64/112 178/62/105
f 112/102/29 111/101/28 227/101/115 228/102/116
f 63/63/113 61/61/109 177/61/109 179/63/113
f 110/103/30 112/102/29 228/102/116 226/103/107
f 111/101/28 109/100/27 225/100/104 227/101/115
f 57/57/93 65/66/117 181/66/117 173/57/93
f 105/98/25 113/97/24 229/97/118 221/98/111
f 66/65/119 58/60/98 174/60/98 182/65/119
f 114/94/21 106/93/20 222/93/114 230/94/120
f 67/68/121 68/67/122 184/67/122 183/68/121
f 115/96/23 116/95/22 232/95/123 231/96/124
f 65/66/117 67/68/121 183/68/121 181/66/117
f 14/15/48 31/36/125 147/36/125 130/15/48
f 113/97/24 115/96/23 231/96/124 229/97/118
f 68/67/122 66/65/119 182/65/119 184/67/122
f 31/36/125 32/38/126 148/38/126 147/36/125
f 116/95/22 114/94/21 230/94/120 232/95/123
f 71/70/127 69/69/5 185/69/128 187/70/127
f 32/38/126 33/40/129 149/40/129 148/38/126
f 33/40/129 34/20/61 150/20/61 149/40/129
f 70/72/2 72/71/130 188/71/130 186/72/131
f 15/18/76 35/17/132 151/17/132 131/18/76
f 35/17/132 36/39/133 152/39/133 151/17/132
f 36/39/133 37/37/134 153/37/134 152/39/133
f 72/71/130 74/74/135 190/74/135 188/71/130
f 37/37/134 38/35/65 154/35/65 153/37/134
f 73/73/136 71/70/127 187/70/127 189/73/136
f 76/76/137 75/75/138 191/75/138 192/76/137
f 1/1/53 2/4/139 118/4/139 117/1/53
f 74/74/135 76/76/137 192/76/137 190/74/135
f 75/75/138 73/73/136 189/73/136 191/75/138
f 4/3/140 3/2/79 119/2/79 120/3/140
f 16/19/62 39/42/141 155/42/141 132/19/62
f 69/69/5 77/78/4 193/78/142 185/69/128
f 39/42/141 40/24/71 156/24/71 155/42/141
f 78/77/3 70/72/2 186/72/131 194/77/143
f 17/22/144 41/21/145 157/21/145 133/22/144
f 79/80/7 80/79/6 196/79/146 195/80/147
f 41/21/145 42/41/75 158/41/75 157/21/145
s 0
f 7/8/148 8/7/148 124/7/148 123/8/148
s 1
f 77/78/4 79/80/7 195/80/147 193/78/142
s 0
f 2/4/149 7/8/149 123/8/149 118/4/149
s 1
f 80/79/6 78/77/3 194/77/143 196/79/146
s 0
f 8/7/150 5/6/150 121/6/150 124/7/150
s 1
f 83/111/38 81/110/37 197/110/64 199/111/151
f 44/44/152 43/43/153 159/43/153 160/44/152
s 0
f 10/10/154 9/9/154 125/9/154 126/10/154
s 1
f 97/88/15 95/87/14 211/87/155 213/88/88
f 18/23/72 44/44/152 160/44/152 134/23/72
s 0
f 6/5/156 10/10/156 126/10/156 122/5/156
s 1
f 82/105/32 84/116/43 200/116/157 198/105/67
f 43/43/153 17/22/144 133/22/144 159/43/153
s 0
f 9/9/158 4/3/158 120/3/158 125/9/158
s 1
f 96/92/19 98/91/18 214/91/86 212/92/57
f 47/46/56 45/45/73 161/45/73 163/46/56
s 0
f 11/12/159 12/11/159 128/11/159 127/12/159
s 1
f 95/87/14 93/86/13 209/86/91 211/87/155
s 0
f 5/6/160 11/12/160 127/12/160 121/6/160
s 1
f 84/116/43 86/115/42 202/115/49 200/116/157
f 46/48/78 48/47/50 164/47/50 162/48/78
s 0
f 12/11/161 6/5/161 122/5/161 128/11/161
s 1
f 85/112/39 83/111/38 199/111/151 201/112/54
