# Blender 5.1.2
# www.blender.org
mtllib SpeedBoostArrow.mtl
o Plane
v -2.000000 -0.300000 1.837909
v -2.000000 -0.300000 0.871921
v 0.000000 -0.300000 1.193917
v 0.000000 -0.300000 0.227929
v 2.000000 -0.300000 1.837909
v 2.000000 -0.300000 0.871921
v -2.000000 0.300000 1.837909
v -2.000000 0.300000 0.871921
v 0.000000 0.300000 1.193917
v 0.000000 0.300000 0.227929
v 2.000000 0.300000 1.837909
v 2.000000 0.300000 0.871921
v -2.000000 -0.300000 0.614325
v -2.000000 -0.300000 -0.351663
v 0.000000 -0.300000 -0.029667
v 0.000000 -0.300000 -0.995655
v 2.000000 -0.300000 0.614325
v 2.000000 -0.300000 -0.351663
v -2.000000 0.300000 0.614325
v -2.000000 0.300000 -0.351663
v 0.000000 0.300000 -0.029667
v 0.000000 0.300000 -0.995655
v 2.000000 0.300000 0.614325
v 2.000000 0.300000 -0.351663
v -2.000000 -0.300000 -0.609260
v -2.000000 -0.300000 -1.575248
v 0.000000 -0.300000 -1.253252
v 0.000000 -0.300000 -2.219240
v 2.000000 -0.300000 -0.609260
v 2.000000 -0.300000 -1.575248
v -2.000000 0.300000 -0.609260
v -2.000000 0.300000 -1.575248
v 0.000000 0.300000 -1.253252
v 0.000000 0.300000 -2.219240
v 2.000000 0.300000 -0.609260
v 2.000000 0.300000 -1.575248
vn -0.0000 -1.0000 -0.0000
vn -0.0000 1.0000 -0.0000
vn -0.3065 -0.0000 0.9519
vn 1.0000 -0.0000 -0.0000
vn 0.3065 -0.0000 0.9519
vn -1.0000 -0.0000 -0.0000
vn 0.3065 -0.0000 -0.9519
vn -0.3065 -0.0000 -0.9519
vt 0.017509 0.022164
vt 0.017509 0.252751
vt 0.494920 0.406475
vt 0.494920 0.175889
vt 0.972331 0.022164
vt 0.972331 0.252751
vt 0.017509 0.314241
vt 0.017509 0.544827
vt 0.494920 0.698552
vt 0.494920 0.467965
vt 0.972331 0.314241
vt 0.972331 0.544827
vt 0.017509 0.606317
vt 0.017509 0.836904
vt 0.494920 0.990628
vt 0.494920 0.760042
vt 0.972331 0.606317
vt 0.972331 0.836904
s 0
f 1/1/1 2/2/1 4/3/1 3/4/1
f 5/5/1 3/4/1 4/3/1 6/6/1
f 7/1/2 9/4/2 10/3/2 8/2/2
f 11/5/2 12/6/2 10/3/2 9/4/2
f 3/4/3 5/5/3 11/5/3 9/4/3
f 5/5/4 6/6/4 12/6/4 11/5/4
f 1/1/5 3/4/5 9/4/5 7/1/5
f 2/2/6 1/1/6 7/1/6 8/2/6
f 6/6/7 4/3/7 10/3/7 12/6/7
f 4/3/8 2/2/8 8/2/8 10/3/8
f 13/7/1 14/8/1 16/9/1 15/10/1
f 17/11/1 15/10/1 16/9/1 18/12/1
f 19/7/2 21/10/2 22/9/2 20/8/2
f 23/11/2 24/12/2 22/9/2 21/10/2
f 15/10/3 17/11/3 23/11/3 21/10/3
f 17/11/4 18/12/4 24/12/4 23/11/4
f 13/7/5 15/10/5 21/10/5 19/7/5
f 14/8/6 13/7/6 19/7/6 20/8/6
f 18/12/7 16/9/7 22/9/7 24/12/7
f 16/9/8 14/8/8 20/8/8 22/9/8
f 25/13/1 26/14/1 28/15/1 27/16/1
f 29/17/1 27/16/1 28/15/1 30/18/1
f 31/13/2 33/16/2 34/15/2 32/14/2
f 35/17/2 36/18/2 34/15/2 33/16/2
f 27/16/3 29/17/3 35/17/3 33/16/3
f 29/17/4 30/18/4 36/18/4 35/17/4
f 25/13/5 27/16/5 33/16/5 31/13/5
f 26/14/6 25/13/6 31/13/6 32/14/6
f 30/18/7 28/15/7 34/15/7 36/18/7
f 28/15/8 26/14/8 32/14/8 34/15/8
