# Blender 5.1.2
# www.blender.org
mtllib SpeedBoostcircle.mtl
o Cylinder
v 0.000000 -0.647722 -3.661167
v 0.000000 0.647722 -3.661167
v 0.714258 -0.647722 -3.590818
v 0.714258 0.647722 -3.590818
v 1.401068 -0.647722 -3.382477
v 1.401068 0.647722 -3.382477
v 2.034035 -0.647722 -3.044149
v 2.034035 0.647722 -3.044149
v 2.588836 -0.647722 -2.588836
v 2.588836 0.647722 -2.588836
v 3.044149 -0.647722 -2.034035
v 3.044149 0.647722 -2.034035
v 3.382477 -0.647722 -1.401068
v 3.382477 0.647722 -1.401068
v 3.590818 -0.647722 -0.714258
v 3.590818 0.647722 -0.714258
v 3.661167 -0.647722 -0.000000
v 3.661167 0.647722 -0.000000
v 3.590818 -0.647722 0.714258
v 3.590818 0.647722 0.714258
v 3.382477 -0.647722 1.401068
v 3.382477 0.647722 1.401068
v 3.044149 -0.647722 2.034035
v 3.044149 0.647722 2.034035
v 2.588836 -0.647722 2.588836
v 2.588836 0.647722 2.588836
v 2.034035 -0.647722 3.044149
v 2.034035 0.647722 3.044149
v 1.401068 -0.647722 3.382477
v 1.401068 0.647722 3.382477
v 0.714258 -0.647722 3.590818
v 0.714258 0.647722 3.590818
v 0.000000 -0.647722 3.661167
v 0.000000 0.647722 3.661167
v -0.714258 -0.647722 3.590818
v -0.714258 0.647722 3.590818
v -1.401068 -0.647722 3.382477
v -1.401068 0.647722 3.382477
v -2.034035 -0.647722 3.044149
v -2.034035 0.647722 3.044149
v -2.588836 -0.647722 2.588836
v -2.588836 0.647722 2.588836
v -3.044149 -0.647722 2.034035
v -3.044149 0.647722 2.034035
v -3.382477 -0.647722 1.401068
v -3.382477 0.647722 1.401068
v -3.590818 -0.647722 0.714258
v -3.590818 0.647722 0.714258
v -3.661167 -0.647722 -0.000000
v -3.661167 0.647722 -0.000000
v -3.590818 -0.647722 -0.714258
v -3.590818 0.647722 -0.714258
v -3.382477 -0.647722 -1.401068
v -3.382477 0.647722 -1.401068
v -3.044149 -0.647722 -2.034035
v -3.044149 0.647722 -2.034035
v -2.588836 -0.647722 -2.588836
v -2.588836 0.647722 -2.588836
v -2.034035 -0.647722 -3.044149
v -2.034035 0.647722 -3.044149
v -1.401068 -0.647722 -3.382477
v -1.401068 0.647722 -3.382477
v -0.714258 -0.647722 -3.590818
v -0.714258 0.647722 -3.590818
v -0.000000 -0.647723 -3.100569
v 0.604891 -0.647723 -3.040993
v 0.604891 0.647723 -3.040993
v -0.000000 0.647723 -3.100569
v 1.186536 -0.647723 -2.864552
v 1.186536 0.647723 -2.864552
v 1.722584 -0.647723 -2.578029
v 1.722584 0.647723 -2.578029
v 2.192433 -0.647723 -2.192433
v 2.192433 0.647723 -2.192433
v 2.578029 -0.647723 -1.722584
v 2.578029 0.647723 -1.722584
v 2.864552 -0.647723 -1.186536
v 2.864552 0.647723 -1.186536
v 3.040993 -0.647723 -0.604891
v 3.040993 0.647723 -0.604891
v 3.100569 -0.647723 0.000000
v 3.100569 0.647723 0.000000
v 3.040993 -0.647723 0.604891
v 3.040993 0.647723 0.604891
v 2.864552 -0.647723 1.186536
v 2.864552 0.647723 1.186536
v 2.578029 -0.647723 1.722584
v 2.578029 0.647723 1.722584
v 2.192433 -0.647723 2.192434
v 2.192433 0.647723 2.192434
v 1.722584 -0.647723 2.578029
v 1.722584 0.647723 2.578029
v 1.186536 -0.647723 2.864552
v 1.186536 0.647723 2.864552
v 0.604891 -0.647723 3.040993
v 0.604891 0.647723 3.040993
v -0.000000 -0.647723 3.100569
v -0.000000 0.647723 3.100569
v -0.604891 -0.647723 3.040993
v -0.604891 0.647723 3.040993
v -1.186536 -0.647723 2.864552
v -1.186536 0.647723 2.864552
v -1.722584 -0.647723 2.578029
v -1.722584 0.647723 2.578029
v -2.192433 -0.647723 2.192434
v -2.192433 0.647723 2.192434
v -2.578029 -0.647723 1.722584
v -2.578029 0.647723 1.722584
v -2.864552 -0.647723 1.186536
v -2.864552 0.647723 1.186536
v -3.040993 -0.647723 0.604891
v -3.040993 0.647723 0.604891
v -3.100569 -0.647723 0.000000
v -3.100569 0.647723 0.000000
v -3.040993 -0.647723 -0.604891
v -3.040993 0.647723 -0.604891
v -2.864552 -0.647723 -1.186536
v -2.864552 0.647723 -1.186536
v -2.578029 -0.647723 -1.722584
v -2.578029 0.647723 -1.722584
v -2.192433 -0.647723 -2.192433
v -2.192433 0.647723 -2.192433
v -1.722584 -0.647723 -2.578029
v -1.722584 0.647723 -2.578029
v -1.186536 -0.647723 -2.864552
v -1.186536 0.647723 -2.864552
v -0.604891 -0.647723 -3.040993
v -0.604891 0.647723 -3.040993
vn -0.0000 -0.0000 -1.0000
vn 0.1951 -0.0000 -0.9808
vn 0.3827 -0.0000 -0.9239
vn 0.5556 -0.0000 -0.8315
vn 0.7071 -0.0000 -0.7071
vn 0.8315 -0.0000 -0.5556
vn 0.9239 -0.0000 -0.3827
vn 0.9808 -0.0000 -0.1951
vn 1.0000 -0.0000 -0.0000
vn 0.9808 -0.0000 0.1951
vn 0.9239 -0.0000 0.3827
vn 0.8315 -0.0000 0.5556
vn 0.7071 -0.0000 0.7071
vn 0.5556 -0.0000 0.8315
vn 0.3827 -0.0000 0.9239
vn 0.1951 -0.0000 0.9808
vn -0.0000 -0.0000 1.0000
vn -0.1951 -0.0000 0.9808
vn -0.3827 -0.0000 0.9239
vn -0.5556 -0.0000 0.8315
vn -0.7071 -0.0000 0.7071
vn -0.8315 -0.0000 0.5556
vn -0.9239 -0.0000 0.3827
vn -0.9808 -0.0000 0.1951
vn -1.0000 -0.0000 -0.0000
vn -0.9808 -0.0000 -0.1951
vn -0.9239 -0.0000 -0.3827
vn -0.8315 -0.0000 -0.5556
vn -0.7071 -0.0000 -0.7071
vn -0.5556 -0.0000 -0.8315
vn -0.3827 -0.0000 -0.9239
vn -0.1951 -0.0000 -0.9808
vn -0.0000 1.0000 -0.0000
vn -0.0000 -1.0000 -0.0000
vt 0.489060 0.978793
vt 0.583082 0.969532
vt 0.673490 0.942107
vt 0.756811 0.897571
vt 0.829843 0.837636
vt 0.889778 0.764605
vt 0.934314 0.681284
vt 0.961739 0.590875
vt 0.970999 0.496854
vt 0.961739 0.402832
vt 0.934314 0.312424
vt 0.889778 0.229103
vt 0.829843 0.156072
vt 0.756811 0.096136
vt 0.673490 0.051600
vt 0.583082 0.024175
vt 0.489060 0.014915
vt 0.395039 0.024175
vt 0.304630 0.051600
vt 0.221310 0.096136
vt 0.148278 0.156072
vt 0.088343 0.229103
vt 0.043807 0.312424
vt 0.016382 0.402832
vt 0.007122 0.496854
vt 0.016382 0.590875
vt 0.043807 0.681284
vt 0.088343 0.764605
vt 0.148278 0.837636
vt 0.221310 0.897571
vt 0.304630 0.942107
vt 0.568685 0.897156
vt 0.645250 0.873930
vt 0.395039 0.969532
vt 0.489060 0.904998
vt 0.715813 0.836213
vt 0.777662 0.785455
vt 0.828420 0.723607
vt 0.866137 0.653044
vt 0.889363 0.576479
vt 0.897205 0.496854
vt 0.889363 0.417229
vt 0.866137 0.340664
vt 0.828420 0.270101
vt 0.777662 0.208252
vt 0.715813 0.157494
vt 0.645250 0.119777
vt 0.568685 0.096552
vt 0.489060 0.088709
vt 0.409436 0.096552
vt 0.332870 0.119777
vt 0.262308 0.157494
vt 0.200459 0.208252
vt 0.149701 0.270101
vt 0.111984 0.340664
vt 0.088759 0.417229
vt 0.080916 0.496854
vt 0.088759 0.576479
vt 0.111984 0.653044
vt 0.149701 0.723607
vt 0.200459 0.785455
vt 0.262308 0.836213
vt 0.332870 0.873930
vt 0.409436 0.897156
s 1
f 1/1/1 2/1/1 4/2/2 3/2/2
f 3/2/2 4/2/2 6/3/3 5/3/3
f 5/3/3 6/3/3 8/4/4 7/4/4
f 7/4/4 8/4/4 10/5/5 9/5/5
f 9/5/5 10/5/5 12/6/6 11/6/6
f 11/6/6 12/6/6 14/7/7 13/7/7
f 13/7/7 14/7/7 16/8/8 15/8/8
f 15/8/8 16/8/8 18/9/9 17/9/9
f 17/9/9 18/9/9 20/10/10 19/10/10
f 19/10/10 20/10/10 22/11/11 21/11/11
f 21/11/11 22/11/11 24/12/12 23/12/12
f 23/12/12 24/12/12 26/13/13 25/13/13
f 25/13/13 26/13/13 28/14/14 27/14/14
f 27/14/14 28/14/14 30/15/15 29/15/15
f 29/15/15 30/15/15 32/16/16 31/16/16
f 31/16/16 32/16/16 34/17/17 33/17/17
f 33/17/17 34/17/17 36/18/18 35/18/18
f 35/18/18 36/18/18 38/19/19 37/19/19
f 37/19/19 38/19/19 40/20/20 39/20/20
f 39/20/20 40/20/20 42/21/21 41/21/21
f 41/21/21 42/21/21 44/22/22 43/22/22
f 43/22/22 44/22/22 46/23/23 45/23/23
f 45/23/23 46/23/23 48/24/24 47/24/24
f 47/24/24 48/24/24 50/25/25 49/25/25
f 49/25/25 50/25/25 52/26/26 51/26/26
f 51/26/26 52/26/26 54/27/27 53/27/27
f 53/27/27 54/27/27 56/28/28 55/28/28
f 55/28/28 56/28/28 58/29/29 57/29/29
f 57/29/29 58/29/29 60/30/30 59/30/30
f 59/30/30 60/30/30 62/31/31 61/31/31
f 66/32/18 69/33/19 70/33/19 67/32/18
f 61/31/31 62/31/31 64/34/32 63/34/32
f 63/34/32 64/34/32 2/1/1 1/1/1
f 65/35/17 66/32/18 67/32/18 68/35/17
f 69/33/19 71/36/20 72/36/20 70/33/19
f 71/36/20 73/37/21 74/37/21 72/36/20
f 73/37/21 75/38/22 76/38/22 74/37/21
f 75/38/22 77/39/23 78/39/23 76/38/22
f 77/39/23 79/40/24 80/40/24 78/39/23
f 79/40/24 81/41/25 82/41/25 80/40/24
f 81/41/25 83/42/26 84/42/26 82/41/25
f 83/42/26 85/43/27 86/43/27 84/42/26
f 85/43/27 87/44/28 88/44/28 86/43/27
f 87/44/28 89/45/29 90/45/29 88/44/28
f 89/45/29 91/46/30 92/46/30 90/45/29
f 91/46/30 93/47/31 94/47/31 92/46/30
f 93/47/31 95/48/32 96/48/32 94/47/31
f 95/48/32 97/49/1 98/49/1 96/48/32
f 97/49/1 99/50/2 100/50/2 98/49/1
f 99/50/2 101/51/3 102/51/3 100/50/2
f 101/51/3 103/52/4 104/52/4 102/51/3
f 103/52/4 105/53/5 106/53/5 104/52/4
f 105/53/5 107/54/6 108/54/6 106/53/5
f 107/54/6 109/55/7 110/55/7 108/54/6
f 109/55/7 111/56/8 112/56/8 110/55/7
f 111/56/8 113/57/9 114/57/9 112/56/8
f 113/57/9 115/58/10 116/58/10 114/57/9
f 115/58/10 117/59/11 118/59/11 116/58/10
f 117/59/11 119/60/12 120/60/12 118/59/11
f 119/60/12 121/61/13 122/61/13 120/60/12
f 121/61/13 123/62/14 124/62/14 122/61/13
f 123/62/14 125/63/15 126/63/15 124/62/14
f 125/63/15 127/64/16 128/64/16 126/63/15
f 127/64/16 65/35/17 68/35/17 128/64/16
s 0
f 54/27/33 118/59/33 120/60/33 56/28/33
f 21/11/34 85/43/34 83/42/34 19/10/34
f 39/20/34 103/52/34 101/51/34 37/19/34
f 20/10/33 84/42/33 86/43/33 22/11/33
f 57/29/34 121/61/34 119/60/34 55/28/34
f 38/19/33 102/51/33 104/52/33 40/20/33
f 5/3/34 69/33/34 66/32/34 3/2/34
f 56/28/33 120/60/33 122/61/33 58/29/33
f 23/12/34 87/44/34 85/43/34 21/11/34
f 4/2/33 67/32/33 70/33/33 6/3/33
f 41/21/34 105/53/34 103/52/34 39/20/34
f 22/11/33 86/43/33 88/44/33 24/12/33
f 59/30/34 123/62/34 121/61/34 57/29/34
f 40/20/33 104/52/33 106/53/33 42/21/33
f 7/4/34 71/36/34 69/33/34 5/3/34
f 58/29/33 122/61/33 124/62/33 60/30/33
f 25/13/34 89/45/34 87/44/34 23/12/34
f 6/3/33 70/33/33 72/36/33 8/4/33
f 43/22/34 107/54/34 105/53/34 41/21/34
f 24/12/33 88/44/33 90/45/33 26/13/33
f 61/31/34 125/63/34 123/62/34 59/30/34
f 42/21/33 106/53/33 108/54/33 44/22/33
f 9/5/34 73/37/34 71/36/34 7/4/34
f 60/30/33 124/62/33 126/63/33 62/31/33
f 27/14/34 91/46/34 89/45/34 25/13/34
f 8/4/33 72/36/33 74/37/33 10/5/33
f 45/23/34 109/55/34 107/54/34 43/22/34
f 26/13/33 90/45/33 92/46/33 28/14/33
f 63/34/34 127/64/34 125/63/34 61/31/34
f 44/22/33 108/54/33 110/55/33 46/23/33
f 11/6/34 75/38/34 73/37/34 9/5/34
f 62/31/33 126/63/33 128/64/33 64/34/33
f 29/15/34 93/47/34 91/46/34 27/14/34
f 10/5/33 74/37/33 76/38/33 12/6/33
f 47/24/34 111/56/34 109/55/34 45/23/34
f 28/14/33 92/46/33 94/47/33 30/15/33
f 1/1/34 65/35/34 127/64/34 63/34/34
f 46/23/33 110/55/33 112/56/33 48/24/33
f 13/7/34 77/39/34 75/38/34 11/6/34
f 64/34/33 128/64/33 68/35/33 2/1/33
f 31/16/34 95/48/34 93/47/34 29/15/34
f 12/6/33 76/38/33 78/39/33 14/7/33
f 49/25/34 113/57/34 111/56/34 47/24/34
f 30/15/33 94/47/33 96/48/33 32/16/33
f 48/24/33 112/56/33 114/57/33 50/25/33
f 15/8/34 79/40/34 77/39/34 13/7/34
f 33/17/34 97/49/34 95/48/34 31/16/34
f 14/7/33 78/39/33 80/40/33 16/8/33
f 51/26/34 115/58/34 113/57/34 49/25/34
f 32/16/33 96/48/33 98/49/33 34/17/33
f 50/25/33 114/57/33 116/58/33 52/26/33
f 17/9/34 81/41/34 79/40/34 15/8/34
f 35/18/34 99/50/34 97/49/34 33/17/34
f 16/8/33 80/40/33 82/41/33 18/9/33
f 53/27/34 117/59/34 115/58/34 51/26/34
f 34/17/33 98/49/33 100/50/33 36/18/33
f 52/26/33 116/58/33 118/59/33 54/27/33
f 19/10/34 83/42/34 81/41/34 17/9/34
f 37/19/34 101/51/34 99/50/34 35/18/34
f 18/9/33 82/41/33 84/42/33 20/10/33
f 3/2/34 66/32/34 65/35/34 1/1/34
f 55/28/34 119/60/34 117/59/34 53/27/34
f 36/18/33 100/50/33 102/51/33 38/19/33
f 2/1/33 68/35/33 67/32/33 4/2/33
